<svg width="115" height="125" viewBox="0 0 115 125" fill="none" xmlns="http://www.w3.org/2000/svg">
<path d="M22 3C22 1.34315 23.3431 0 25 0H29C30.6569 0 32 1.34315 32 3V12C32 13.6569 30.6569 15 29 15H25C23.3431 15 22 13.6569 22 12V3Z" fill="#f2ede4"/>
<path d="M82 3C82 1.34315 83.3431 0 85 0H89C90.6569 0 92 1.34315 92 3V12C92 13.6569 90.6569 15 89 15H85C83.3431 15 82 13.6569 82 12V3Z" fill="#f2ede4"/>
<path d="M115 120C115 122.761 112.761 125 110 125H5C2.23858 125 5.03341e-08 122.761 0 120V31H115V120ZM12 103H30V85H12V103ZM48 85V103H66V85H48ZM84 103H102V85H84V103ZM12 73H30V55H12V73ZM48 73H66V55H48V73ZM84 73H102V55H84V73ZM110 10C112.761 10 115 12.2386 115 15V24H0V15C0 12.2386 2.23858 10 5 10H110Z" fill="#f2ede4"/>
</svg>