<svg width="384" height="75" viewBox="0 0 384 75" fill="none" xmlns="http://www.w3.org/2000/svg">
<path d="M0.380645 49.3355V47.3742C2.72043 47.271 4.56129 46.8237 5.90323 46.0323C7.24516 45.2409 8.1914 43.9505 8.74194 42.1613C9.32688 40.372 9.61935 37.9462 9.61935 34.8839V6.90968C9.61935 5.67097 9.46452 4.75914 9.15484 4.17419C8.84516 3.55484 8.2086 3.12473 7.24516 2.88387C6.31613 2.64301 4.90538 2.50538 3.0129 2.47097V0.458065C4.69892 0.561291 7.72688 0.612904 12.0968 0.612904C16.1914 0.612904 19.1333 0.561291 20.9226 0.458065V2.47097C19.1677 2.50538 17.8602 2.64301 17 2.88387C16.1398 3.12473 15.5548 3.55484 15.2452 4.17419C14.9699 4.75914 14.8323 5.67097 14.8323 6.90968V32.5613C14.8323 36.6215 14.3505 39.8903 13.3871 42.3677C12.4581 44.8452 10.9269 46.6172 8.79355 47.6839C6.69462 48.7849 3.89032 49.3355 0.380645 49.3355ZM21.6004 37V34.9871C22.7703 34.9183 23.7509 34.6774 24.5423 34.2645C25.3681 33.8516 26.0907 33.2151 26.7101 32.3548C27.3638 31.4602 27.966 30.3075 28.5165 28.8968L40.3359 0.0967751H42.194L54.7875 30.7032C55.4413 32.2516 56.2327 33.3527 57.1617 34.0065C58.1251 34.6258 59.5187 34.9527 61.3423 34.9871V37C60.4821 36.9312 59.3638 36.8968 57.9875 36.8968C56.6112 36.8624 55.0284 36.8452 53.2391 36.8452C51.209 36.8452 49.437 36.8624 47.923 36.8968C46.4434 36.8968 45.2907 36.9312 44.4649 37V34.9871C46.2542 34.9527 47.5617 34.8151 48.3875 34.5742C49.2477 34.2989 49.7294 33.8688 49.8327 33.2839C49.9359 32.6645 49.7466 31.7699 49.2649 30.6L39.3036 6.29032L40.2327 5.46452L31.4069 27.1419C30.6499 28.9656 30.2886 30.4452 30.323 31.5806C30.3574 32.7161 30.8391 33.5591 31.7681 34.1097C32.7316 34.6258 34.1767 34.9183 36.1036 34.9871V37C35.1746 36.9656 34.2456 36.9484 33.3165 36.9484C32.3875 36.914 31.4585 36.8968 30.5294 36.8968C29.6348 36.8624 28.723 36.8452 27.794 36.8452C26.7617 36.8452 25.7466 36.8624 24.7488 36.8968C23.7509 36.8968 22.7015 36.9312 21.6004 37ZM31.3552 24.3548L32.181 22.3419H48.594L49.3681 24.3548H31.3552ZM93.644 37.3613L73.5149 4.5871H72.6375V29.929C72.6375 31.2022 72.7923 32.2 73.102 32.9226C73.4117 33.6108 74.0138 34.1097 74.9085 34.4194C75.8375 34.729 77.2138 34.9183 79.0375 34.9871V37C78.3493 36.9312 77.3515 36.8968 76.044 36.8968C74.7364 36.8624 73.3257 36.8452 71.8117 36.8452C70.2289 36.8452 68.8009 36.8624 67.5278 36.8968C66.2547 36.8968 65.2569 36.9312 64.5343 37V34.9871C66.2203 34.9183 67.4934 34.729 68.3536 34.4194C69.2483 34.1097 69.8332 33.6108 70.1085 32.9226C70.4181 32.2 70.573 31.2022 70.573 29.929V6.90968C70.573 5.67097 70.4353 4.75914 70.1601 4.17419C69.8848 3.55484 69.3171 3.12473 68.4569 2.88387C67.5966 2.64301 66.2891 2.50538 64.5343 2.47097V0.458065C65.2913 0.492474 66.3063 0.526882 67.5794 0.561291C68.8526 0.595699 70.2805 0.612904 71.8633 0.612904C72.9644 0.612904 73.9794 0.595699 74.9085 0.561291C75.8375 0.526882 76.6117 0.492474 77.231 0.458065L93.2827 26.6258H94.1601V7.52903C94.1601 6.22151 94.0052 5.22366 93.6956 4.53548C93.3859 3.84731 92.7837 3.34839 91.8891 3.03871C90.9945 2.69463 89.6353 2.50538 87.8117 2.47097V0.458065C88.5343 0.492474 89.5321 0.526882 90.8052 0.561291C92.1128 0.595699 93.5235 0.612904 95.0375 0.612904C96.6203 0.612904 98.0483 0.595699 99.3214 0.561291C100.594 0.526882 101.592 0.492474 102.315 0.458065V2.47097C100.629 2.50538 99.3386 2.67742 98.444 2.9871C97.5837 3.29678 96.9988 3.8129 96.6891 4.53548C96.3794 5.22366 96.2246 6.22151 96.2246 7.52903V37.3613H93.644ZM107.784 37V34.9871C109.539 34.9183 110.847 34.7806 111.707 34.5742C112.567 34.3677 113.135 33.9548 113.41 33.3355C113.685 32.7161 113.823 31.7871 113.823 30.5484V6.90968C113.823 5.67097 113.685 4.75914 113.41 4.17419C113.135 3.55484 112.567 3.12473 111.707 2.88387C110.847 2.64301 109.539 2.50538 107.784 2.47097V0.458065C109.608 0.492474 111.982 0.526882 114.907 0.561291C117.866 0.595699 121.324 0.612904 125.281 0.612904C126.52 0.612904 127.758 0.612904 128.997 0.612904C130.27 0.612904 131.475 0.595699 132.61 0.561291C133.78 0.526882 134.847 0.492474 135.81 0.458065C135.81 2.14409 135.879 3.83011 136.017 5.51613C136.189 7.16774 136.395 8.81936 136.636 10.471H134.571C134.09 8.44086 133.522 6.85806 132.868 5.72258C132.249 4.55269 131.44 3.74409 130.442 3.29678C129.444 2.84946 128.154 2.62581 126.571 2.62581H119.036V30.6516C119.036 31.8215 119.139 32.7161 119.346 33.3355C119.552 33.9548 119.965 34.3677 120.584 34.5742C121.238 34.7462 122.201 34.8323 123.475 34.8323H125.642C127.844 34.8323 129.617 34.557 130.958 34.0065C132.3 33.4215 133.401 32.372 134.262 30.8581C135.156 29.3441 135.999 27.1935 136.791 24.4065H138.855C138.58 26.471 138.374 28.5527 138.236 30.6516C138.098 32.7161 138.029 34.8323 138.029 37C136.412 36.9312 134.554 36.8968 132.455 36.8968C130.391 36.8624 127.982 36.8452 125.229 36.8452C121.307 36.8452 117.866 36.8624 114.907 36.8968C111.982 36.8968 109.608 36.9312 107.784 37ZM117.384 19.6065V17.6452H126.468V19.6065H117.384ZM128.688 26.2129C128.515 24.5269 128.24 23.2194 127.862 22.2903C127.483 21.3269 126.915 20.6387 126.158 20.2258C125.401 19.8129 124.386 19.6065 123.113 19.6065V17.6452C124.868 17.6452 126.141 17.1462 126.933 16.1484C127.758 15.1161 128.292 13.4129 128.533 11.0387H130.339C130.201 13.0688 130.133 14.6172 130.133 15.6839C130.167 16.7505 130.184 17.7312 130.184 18.6258C130.184 19.3828 130.184 20.1226 130.184 20.8452C130.219 21.5333 130.253 22.3075 130.288 23.1677C130.356 23.9935 130.425 25.0086 130.494 26.2129H128.688ZM149.892 37V34.9871C151.956 34.9183 153.487 34.7634 154.485 34.5226C155.517 34.2817 156.206 33.8172 156.55 33.129C156.894 32.4409 157.066 31.4258 157.066 30.0839V2.62581H154.227C152.713 2.62581 151.457 2.91828 150.459 3.50323C149.496 4.05376 148.687 5.03441 148.033 6.44516C147.38 7.85591 146.795 9.83441 146.279 12.3806H144.214C144.558 10.2473 144.799 8.2172 144.937 6.29032C145.109 4.32903 145.195 2.38495 145.195 0.458065C146.606 0.492474 148.119 0.526882 149.737 0.561291C151.388 0.595699 153.074 0.612904 154.795 0.612904C156.515 0.612904 158.15 0.612904 159.698 0.612904C161.074 0.612904 162.606 0.612904 164.292 0.612904C166.012 0.612904 167.715 0.595699 169.401 0.561291C171.122 0.526882 172.687 0.492474 174.098 0.458065C174.132 2.35054 174.218 4.29462 174.356 6.29032C174.528 8.25161 174.786 10.2817 175.13 12.3806H173.014C172.636 10.4538 172.206 8.87097 171.724 7.63226C171.276 6.35914 170.743 5.36129 170.124 4.63871C169.539 3.88172 168.833 3.36559 168.008 3.09032C167.216 2.78065 166.253 2.62581 165.117 2.62581H162.279V30.0839C162.279 31.4258 162.451 32.4409 162.795 33.129C163.139 33.8172 163.81 34.2817 164.808 34.5226C165.84 34.7634 167.388 34.9183 169.453 34.9871V37C168.386 36.9312 166.975 36.8968 165.221 36.8968C163.5 36.8624 161.659 36.8452 159.698 36.8452C157.599 36.8452 155.689 36.8624 153.969 36.8968C152.249 36.8968 150.889 36.9312 149.892 37ZM193.347 37V34.9871C195.102 34.9183 196.409 34.7806 197.269 34.5742C198.13 34.3333 198.697 33.9032 198.973 33.2839C199.248 32.6645 199.385 31.7527 199.385 30.5484V6.90968C199.385 5.67097 199.248 4.75914 198.973 4.17419C198.697 3.55484 198.13 3.12473 197.269 2.88387C196.409 2.64301 195.102 2.50538 193.347 2.47097V0.458065C194.104 0.492474 195.17 0.526882 196.547 0.561291C197.923 0.561291 199.592 0.561291 201.553 0.561291C202.482 0.561291 203.377 0.561291 204.237 0.561291C205.097 0.561291 205.889 0.561291 206.611 0.561291C207.368 0.526882 208.039 0.509678 208.624 0.509678C209.209 0.475269 209.674 0.458065 210.018 0.458065C214.181 0.458065 217.433 1.28387 219.773 2.93549C222.112 4.5871 223.282 6.85806 223.282 9.74839C223.282 11.7441 222.68 13.4989 221.476 15.0129C220.272 16.4925 218.585 17.6452 216.418 18.471C214.284 19.2968 211.773 19.7097 208.882 19.7097H202.224V18.1613H208.676C211.773 18.1613 214.061 17.5247 215.54 16.2516C217.02 14.9441 217.76 12.9656 217.76 10.3161C217.76 7.66667 217.02 5.70538 215.54 4.43226C214.061 3.12473 211.807 2.47097 208.779 2.47097H204.598V30.5484C204.598 31.7527 204.736 32.6645 205.011 33.2839C205.321 33.9032 205.906 34.3333 206.766 34.5742C207.626 34.7806 208.934 34.9183 210.689 34.9871V37C209.106 36.8968 206.216 36.8452 202.018 36.8452C197.889 36.8452 194.998 36.8968 193.347 37ZM223.437 37.7226C221.82 37.7226 220.512 37.2753 219.515 36.3806C218.551 35.4516 217.846 33.9892 217.398 31.9935L216.005 26.0581C215.661 24.5097 215.213 23.3226 214.663 22.4968C214.112 21.6366 213.39 21.0344 212.495 20.6903C211.635 20.3118 210.465 20.1226 208.985 20.1226H202.534V18.7806H208.469C211.428 18.7806 213.768 19.0215 215.489 19.5032C217.209 19.9505 218.517 20.7763 219.411 21.9806C220.34 23.1505 221.063 24.8366 221.579 27.0387L222.611 31.0645C222.921 32.372 223.299 33.3011 223.747 33.8516C224.194 34.3677 224.813 34.6258 225.605 34.6258C226.052 34.6258 226.465 34.5226 226.844 34.3161C227.256 34.0753 227.704 33.6796 228.185 33.129L229.321 34.471C228.495 35.6065 227.618 36.4323 226.689 36.9484C225.76 37.4645 224.676 37.7226 223.437 37.7226ZM232.159 37V34.9871C233.914 34.9183 235.222 34.7806 236.082 34.5742C236.942 34.3677 237.51 33.9548 237.785 33.3355C238.06 32.7161 238.198 31.7871 238.198 30.5484V6.90968C238.198 5.67097 238.06 4.75914 237.785 4.17419C237.51 3.55484 236.942 3.12473 236.082 2.88387C235.222 2.64301 233.914 2.50538 232.159 2.47097V0.458065C233.983 0.492474 236.357 0.526882 239.282 0.561291C242.241 0.595699 245.699 0.612904 249.656 0.612904C250.895 0.612904 252.133 0.612904 253.372 0.612904C254.645 0.612904 255.85 0.595699 256.985 0.561291C258.155 0.526882 259.222 0.492474 260.185 0.458065C260.185 2.14409 260.254 3.83011 260.392 5.51613C260.564 7.16774 260.77 8.81936 261.011 10.471H258.946C258.465 8.44086 257.897 6.85806 257.243 5.72258C256.624 4.55269 255.815 3.74409 254.817 3.29678C253.819 2.84946 252.529 2.62581 250.946 2.62581H243.411V30.6516C243.411 31.8215 243.514 32.7161 243.721 33.3355C243.927 33.9548 244.34 34.3677 244.959 34.5742C245.613 34.7462 246.576 34.8323 247.85 34.8323H250.017C252.219 34.8323 253.992 34.557 255.333 34.0065C256.675 33.4215 257.776 32.372 258.637 30.8581C259.531 29.3441 260.374 27.1935 261.166 24.4065H263.23C262.955 26.471 262.749 28.5527 262.611 30.6516C262.473 32.7161 262.404 34.8323 262.404 37C260.787 36.9312 258.929 36.8968 256.83 36.8968C254.766 36.8624 252.357 36.8452 249.604 36.8452C245.682 36.8452 242.241 36.8624 239.282 36.8968C236.357 36.8968 233.983 36.9312 232.159 37ZM241.759 19.6065V17.6452H250.843V19.6065H241.759ZM253.062 26.2129C252.89 24.5269 252.615 23.2194 252.237 22.2903C251.858 21.3269 251.29 20.6387 250.533 20.2258C249.776 19.8129 248.761 19.6065 247.488 19.6065V17.6452C249.243 17.6452 250.516 17.1462 251.308 16.1484C252.133 15.1161 252.667 13.4129 252.908 11.0387H254.714C254.576 13.0688 254.508 14.6172 254.508 15.6839C254.542 16.7505 254.559 17.7312 254.559 18.6258C254.559 19.3828 254.559 20.1226 254.559 20.8452C254.594 21.5333 254.628 22.3075 254.663 23.1677C254.731 23.9935 254.8 25.0086 254.869 26.2129H253.062ZM267.163 37V34.9871C268.333 34.9183 269.313 34.6774 270.105 34.2645C270.931 33.8516 271.653 33.2151 272.273 32.3548C272.926 31.4602 273.528 30.3075 274.079 28.8968L285.898 0.0967751H287.756L300.35 30.7032C301.004 32.2516 301.795 33.3527 302.724 34.0065C303.688 34.6258 305.081 34.9527 306.905 34.9871V37C306.045 36.9312 304.926 36.8968 303.55 36.8968C302.174 36.8624 300.591 36.8452 298.802 36.8452C296.772 36.8452 294.999 36.8624 293.485 36.8968C292.006 36.8968 290.853 36.9312 290.027 37V34.9871C291.817 34.9527 293.124 34.8151 293.95 34.5742C294.81 34.2989 295.292 33.8688 295.395 33.2839C295.498 32.6645 295.309 31.7699 294.827 30.6L284.866 6.29032L285.795 5.46452L276.969 27.1419C276.212 28.9656 275.851 30.4452 275.885 31.5806C275.92 32.7161 276.402 33.5591 277.331 34.1097C278.294 34.6258 279.739 34.9183 281.666 34.9871V37C280.737 36.9656 279.808 36.9484 278.879 36.9484C277.95 36.914 277.021 36.8968 276.092 36.8968C275.197 36.8624 274.285 36.8452 273.356 36.8452C272.324 36.8452 271.309 36.8624 270.311 36.8968C269.313 36.8968 268.264 36.9312 267.163 37ZM276.918 24.3548L277.744 22.3419H294.156L294.931 24.3548H276.918ZM310.097 37V34.9871C311.852 34.9183 313.159 34.7806 314.019 34.5742C314.88 34.3333 315.447 33.9204 315.723 33.3355C315.998 32.7161 316.135 31.7871 316.135 30.5484V6.90968C316.135 5.67097 315.998 4.75914 315.723 4.17419C315.447 3.55484 314.88 3.12473 314.019 2.88387C313.159 2.64301 311.852 2.50538 310.097 2.47097V0.458065C311.095 0.492474 312.282 0.526882 313.658 0.561291C315.034 0.561291 316.703 0.561291 318.665 0.561291C319.628 0.561291 320.591 0.561291 321.555 0.561291C322.553 0.526882 323.482 0.509678 324.342 0.509678C325.202 0.475269 325.925 0.458065 326.51 0.458065C333.013 0.458065 337.916 1.93763 341.219 4.89677C344.557 7.85591 346.226 12.2086 346.226 17.9548C346.226 21.9806 345.434 25.4215 343.852 28.2774C342.269 31.0989 339.998 33.2667 337.039 34.7806C334.08 36.2602 330.484 37 326.252 37C325.391 37 324.342 36.9828 323.103 36.9484C321.865 36.8796 320.402 36.8452 318.716 36.8452C317.03 36.8452 315.413 36.8624 313.865 36.8968C312.351 36.9312 311.095 36.9656 310.097 37ZM325.839 35.0903C330.966 35.0903 334.716 33.7828 337.09 31.1677C339.465 28.5183 340.652 24.3548 340.652 18.6774C340.652 12.9312 339.482 8.78495 337.142 6.23871C334.802 3.69247 331.034 2.41935 325.839 2.41935H321.348V30.6516C321.348 31.8903 321.452 32.8366 321.658 33.4903C321.899 34.1097 322.329 34.5398 322.948 34.7806C323.602 34.9871 324.566 35.0903 325.839 35.0903ZM352.659 37V34.9871C354.414 34.9183 355.722 34.7806 356.582 34.5742C357.442 34.3677 358.01 33.9548 358.285 33.3355C358.56 32.7161 358.698 31.7871 358.698 30.5484V6.90968C358.698 5.67097 358.56 4.75914 358.285 4.17419C358.01 3.55484 357.442 3.12473 356.582 2.88387C355.722 2.64301 354.414 2.50538 352.659 2.47097V0.458065C354.483 0.492474 356.857 0.526882 359.782 0.561291C362.741 0.595699 366.199 0.612904 370.156 0.612904C371.395 0.612904 372.633 0.612904 373.872 0.612904C375.145 0.612904 376.35 0.595699 377.485 0.561291C378.655 0.526882 379.722 0.492474 380.685 0.458065C380.685 2.14409 380.754 3.83011 380.892 5.51613C381.064 7.16774 381.27 8.81936 381.511 10.471H379.446C378.965 8.44086 378.397 6.85806 377.743 5.72258C377.124 4.55269 376.315 3.74409 375.317 3.29678C374.319 2.84946 373.029 2.62581 371.446 2.62581H363.911V30.6516C363.911 31.8215 364.014 32.7161 364.221 33.3355C364.427 33.9548 364.84 34.3677 365.459 34.5742C366.113 34.7462 367.076 34.8323 368.35 34.8323H370.517C372.719 34.8323 374.492 34.557 375.833 34.0065C377.175 33.4215 378.276 32.372 379.137 30.8581C380.031 29.3441 380.874 27.1935 381.666 24.4065H383.73C383.455 26.471 383.249 28.5527 383.111 30.6516C382.973 32.7161 382.904 34.8323 382.904 37C381.287 36.9312 379.429 36.8968 377.33 36.8968C375.266 36.8624 372.857 36.8452 370.104 36.8452C366.182 36.8452 362.741 36.8624 359.782 36.8968C356.857 36.8968 354.483 36.9312 352.659 37ZM362.259 19.6065V17.6452H371.343V19.6065H362.259ZM373.562 26.2129C373.39 24.5269 373.115 23.2194 372.737 22.2903C372.358 21.3269 371.79 20.6387 371.033 20.2258C370.276 19.8129 369.261 19.6065 367.988 19.6065V17.6452C369.743 17.6452 371.016 17.1462 371.808 16.1484C372.633 15.1161 373.167 13.4129 373.408 11.0387H375.214C375.076 13.0688 375.008 14.6172 375.008 15.6839C375.042 16.7505 375.059 17.7312 375.059 18.6258C375.059 19.3828 375.059 20.1226 375.059 20.8452C375.094 21.5333 375.128 22.3075 375.163 23.1677C375.231 23.9935 375.3 25.0086 375.369 26.2129H373.562Z" fill="black"/>
<path d="M119.8 67V66.4968C120.256 66.4796 120.591 66.4452 120.806 66.3935C121.022 66.3333 121.163 66.2258 121.232 66.071C121.301 65.9161 121.335 65.6882 121.335 65.3871V59.4774C121.335 59.1677 121.301 58.9398 121.232 58.7935C121.163 58.6387 121.017 58.5312 120.794 58.471C120.578 58.4108 120.247 58.3763 119.8 58.3677V57.8645C120.032 57.8731 120.329 57.8817 120.69 57.8903C121.052 57.8989 121.473 57.9032 121.955 57.9032C122.548 57.9032 123.065 57.8989 123.503 57.8903C123.951 57.8817 124.299 57.8731 124.548 57.8645V58.3677C123.955 58.3763 123.512 58.4108 123.219 58.471C122.935 58.5226 122.751 58.6258 122.665 58.7806C122.578 58.9269 122.535 59.1591 122.535 59.4774V65.3871C122.535 65.6882 122.561 65.9161 122.613 66.071C122.665 66.2258 122.768 66.329 122.923 66.3806C123.086 66.4323 123.335 66.4581 123.671 66.4581H124.252C124.656 66.4581 125 66.4237 125.284 66.3548C125.576 66.286 125.822 66.1613 126.019 65.9806C126.217 65.7914 126.394 65.529 126.548 65.1935C126.703 64.8581 126.854 64.4237 127 63.8903H127.529C127.46 64.4151 127.404 64.9355 127.361 65.4516C127.327 65.9591 127.31 66.4753 127.31 67C126.94 66.9828 126.497 66.9742 125.981 66.9742C125.473 66.9656 124.867 66.9613 124.161 66.9613C123.189 66.9613 122.338 66.9656 121.606 66.9742C120.875 66.9742 120.273 66.9828 119.8 67ZM129.228 67V66.4968C129.778 66.4882 130.161 66.4194 130.376 66.2903C130.6 66.1613 130.712 65.9204 130.712 65.5677V61.9935C130.712 61.5978 130.604 61.314 130.389 61.1419C130.174 60.9699 129.787 60.8753 129.228 60.8581V60.3548C129.4 60.3634 129.576 60.372 129.757 60.3806C129.946 60.3892 130.135 60.3935 130.325 60.3935C130.617 60.3935 130.892 60.3806 131.15 60.3548C131.417 60.3204 131.658 60.2731 131.873 60.2129V65.5677C131.873 65.9204 131.981 66.1613 132.196 66.2903C132.419 66.4194 132.806 66.4882 133.357 66.4968V67C133.228 66.9914 133.047 66.9871 132.815 66.9871C132.591 66.9785 132.346 66.9699 132.079 66.9613C131.813 66.9527 131.546 66.9484 131.279 66.9484C130.892 66.9484 130.501 66.957 130.105 66.9742C129.718 66.9828 129.426 66.9914 129.228 67ZM131.254 58.8065C131.021 58.8065 130.819 58.7247 130.647 58.5613C130.484 58.3892 130.402 58.1871 130.402 57.9548C130.402 57.7226 130.484 57.5247 130.647 57.3613C130.819 57.1892 131.021 57.1032 131.254 57.1032C131.486 57.1032 131.684 57.1892 131.847 57.3613C132.011 57.5247 132.092 57.7226 132.092 57.9548C132.092 58.1871 132.011 58.3892 131.847 58.5613C131.684 58.7247 131.486 58.8065 131.254 58.8065ZM137.942 67.129L135.593 61.7097C135.464 61.4258 135.292 61.2151 135.077 61.0774C134.862 60.9398 134.578 60.871 134.226 60.871V60.3548C134.492 60.372 134.746 60.3849 134.987 60.3935C135.236 60.4022 135.533 60.4065 135.877 60.4065C136.221 60.4065 136.535 60.4022 136.819 60.3935C137.103 60.3849 137.378 60.372 137.645 60.3548V60.871C137.206 60.8796 136.931 60.957 136.819 61.1032C136.716 61.2495 136.742 61.5075 136.897 61.8774L138.587 65.7613L138.406 65.8L139.658 62.6516C139.813 62.2559 139.89 61.929 139.89 61.671C139.89 61.4129 139.808 61.2194 139.645 61.0903C139.49 60.9527 139.249 60.8796 138.922 60.871V60.3548C139.163 60.3634 139.365 60.372 139.529 60.3806C139.701 60.3806 139.86 60.3849 140.006 60.3935C140.152 60.3935 140.32 60.3935 140.509 60.3935C140.793 60.3935 141.051 60.3892 141.284 60.3806C141.516 60.372 141.722 60.3634 141.903 60.3548V60.871C141.542 60.8796 141.236 60.9957 140.987 61.2194C140.746 61.4344 140.531 61.7828 140.342 62.2645L138.406 67.129H137.942ZM146.55 67.1806C146.18 67.1806 145.866 67.1376 145.608 67.0516C145.359 66.9742 145.152 66.9011 144.989 66.8323C144.834 66.7548 144.696 66.7161 144.576 66.7161C144.387 66.7161 144.245 66.8495 144.15 67.1161H143.647C143.673 66.9183 143.69 66.6989 143.699 66.4581C143.707 66.2086 143.711 65.929 143.711 65.6194C143.711 65.3011 143.711 64.9398 143.711 64.5355H144.202C144.314 65.2581 144.55 65.7957 144.911 66.1484C145.281 66.5011 145.776 66.6774 146.395 66.6774C146.86 66.6774 147.217 66.5785 147.466 66.3806C147.716 66.1742 147.841 65.8903 147.841 65.529C147.841 65.1849 147.711 64.9097 147.453 64.7032C147.204 64.4882 146.765 64.2946 146.137 64.1226C145.355 63.9075 144.778 63.628 144.408 63.2839C144.047 62.9398 143.866 62.5097 143.866 61.9935C143.866 61.4344 144.051 60.9914 144.421 60.6645C144.791 60.3376 145.281 60.1742 145.892 60.1742C146.228 60.1742 146.511 60.2129 146.744 60.2903C146.976 60.3677 147.17 60.4495 147.324 60.5355C147.488 60.6129 147.634 60.6516 147.763 60.6516C147.849 60.6516 147.922 60.6215 147.982 60.5613C148.043 60.4925 148.094 60.3892 148.137 60.2516H148.641C148.623 60.4323 148.61 60.6258 148.602 60.8323C148.593 61.0301 148.585 61.2624 148.576 61.529C148.576 61.7871 148.58 62.1011 148.589 62.471H148.086C148.008 61.9204 147.785 61.486 147.415 61.1677C147.045 60.8409 146.593 60.6774 146.06 60.6774C145.69 60.6774 145.398 60.7634 145.182 60.9355C144.976 61.1075 144.873 61.357 144.873 61.6839C144.873 62.0194 145.015 62.2989 145.299 62.5226C145.582 62.7462 146.064 62.957 146.744 63.1548C147.492 63.3613 148.03 63.6237 148.357 63.9419C148.692 64.2602 148.86 64.6774 148.86 65.1935C148.86 65.8129 148.653 66.2989 148.241 66.6516C147.836 67.0043 147.273 67.1806 146.55 67.1806ZM154.444 67.1806C154.074 67.1806 153.76 67.1376 153.502 67.0516C153.253 66.9742 153.046 66.9011 152.883 66.8323C152.728 66.7548 152.59 66.7161 152.47 66.7161C152.281 66.7161 152.139 66.8495 152.044 67.1161H151.541C151.567 66.9183 151.584 66.6989 151.592 66.4581C151.601 66.2086 151.605 65.929 151.605 65.6194C151.605 65.3011 151.605 64.9398 151.605 64.5355H152.096C152.207 65.2581 152.444 65.7957 152.805 66.1484C153.175 66.5011 153.67 66.6774 154.289 66.6774C154.754 66.6774 155.111 66.5785 155.36 66.3806C155.61 66.1742 155.734 65.8903 155.734 65.529C155.734 65.1849 155.605 64.9097 155.347 64.7032C155.098 64.4882 154.659 64.2946 154.031 64.1226C153.248 63.9075 152.672 63.628 152.302 63.2839C151.941 62.9398 151.76 62.5097 151.76 61.9935C151.76 61.4344 151.945 60.9914 152.315 60.6645C152.685 60.3376 153.175 60.1742 153.786 60.1742C154.121 60.1742 154.405 60.2129 154.638 60.2903C154.87 60.3677 155.063 60.4495 155.218 60.5355C155.382 60.6129 155.528 60.6516 155.657 60.6516C155.743 60.6516 155.816 60.6215 155.876 60.5613C155.936 60.4925 155.988 60.3892 156.031 60.2516H156.534C156.517 60.4323 156.504 60.6258 156.496 60.8323C156.487 61.0301 156.478 61.2624 156.47 61.529C156.47 61.7871 156.474 62.1011 156.483 62.471H155.979C155.902 61.9204 155.678 61.486 155.308 61.1677C154.939 60.8409 154.487 60.6774 153.954 60.6774C153.584 60.6774 153.291 60.7634 153.076 60.9355C152.87 61.1075 152.767 61.357 152.767 61.6839C152.767 62.0194 152.908 62.2989 153.192 62.5226C153.476 62.7462 153.958 62.957 154.638 63.1548C155.386 63.3613 155.924 63.6237 156.25 63.9419C156.586 64.2602 156.754 64.6774 156.754 65.1935C156.754 65.8129 156.547 66.2989 156.134 66.6516C155.73 67.0043 155.167 67.1806 154.444 67.1806ZM162.219 67.1806C161.582 67.1806 161.105 66.9957 160.787 66.6258C160.468 66.2473 160.309 65.6796 160.309 64.9226V60.871H158.748V60.3677H160.309V58.3935C160.533 58.3763 160.739 58.3548 160.929 58.329C161.126 58.3032 161.307 58.2645 161.47 58.2129V60.3677H163.78V60.871H161.47V65.271C161.47 65.6925 161.552 66.0065 161.716 66.2129C161.879 66.4108 162.133 66.5097 162.477 66.5097C162.804 66.5097 163.07 66.4065 163.277 66.2C163.483 65.9935 163.638 65.6925 163.741 65.2968L164.141 65.4C164.012 66.0022 163.793 66.4495 163.483 66.7419C163.174 67.0344 162.752 67.1806 162.219 67.1806ZM165.822 67V66.4968C166.372 66.4882 166.755 66.4194 166.97 66.2903C167.194 66.1613 167.305 65.9204 167.305 65.5677V61.9935C167.305 61.5978 167.198 61.314 166.983 61.1419C166.768 60.9699 166.381 60.8753 165.822 60.8581V60.3548C165.994 60.3634 166.17 60.372 166.351 60.3806C166.54 60.3892 166.729 60.3935 166.918 60.3935C167.211 60.3935 167.486 60.3806 167.744 60.3548C168.011 60.3204 168.252 60.2731 168.467 60.2129V65.5677C168.467 65.9204 168.574 66.1613 168.789 66.2903C169.013 66.4194 169.4 66.4882 169.951 66.4968V67C169.822 66.9914 169.641 66.9871 169.409 66.9871C169.185 66.9785 168.94 66.9699 168.673 66.9613C168.407 66.9527 168.14 66.9484 167.873 66.9484C167.486 66.9484 167.095 66.957 166.699 66.9742C166.312 66.9828 166.019 66.9914 165.822 67ZM167.847 58.8065C167.615 58.8065 167.413 58.7247 167.241 58.5613C167.077 58.3892 166.996 58.1871 166.996 57.9548C166.996 57.7226 167.077 57.5247 167.241 57.3613C167.413 57.1892 167.615 57.1032 167.847 57.1032C168.08 57.1032 168.277 57.1892 168.441 57.3613C168.604 57.5247 168.686 57.7226 168.686 57.9548C168.686 58.1871 168.604 58.3892 168.441 58.5613C168.277 58.7247 168.08 58.8065 167.847 58.8065ZM171.487 67V66.4968C172.038 66.4882 172.42 66.4194 172.635 66.2903C172.859 66.1613 172.971 65.9204 172.971 65.5677V58.6645C172.971 58.2688 172.859 57.9849 172.635 57.8129C172.42 57.6409 172.038 57.5462 171.487 57.529V57.0258C171.659 57.0344 171.835 57.043 172.016 57.0516C172.205 57.0602 172.395 57.0645 172.584 57.0645C172.868 57.0645 173.143 57.0516 173.41 57.0258C173.676 56.9914 173.917 56.9441 174.132 56.8839V65.5677C174.132 65.9204 174.24 66.1613 174.455 66.2903C174.678 66.4194 175.061 66.4882 175.603 66.4968V67C175.474 66.9914 175.298 66.9871 175.074 66.9871C174.851 66.9785 174.605 66.9699 174.339 66.9613C174.072 66.9527 173.805 66.9484 173.539 66.9484C173.152 66.9484 172.76 66.957 172.365 66.9742C171.977 66.9828 171.685 66.9914 171.487 67ZM195.47 67.0903L192.399 58.6645H192.167V65.271C192.167 65.5892 192.206 65.8344 192.283 66.0065C192.369 66.1785 192.529 66.2989 192.761 66.3677C192.993 66.4366 193.329 66.4796 193.767 66.4968V67C193.604 66.9828 193.359 66.9742 193.032 66.9742C192.713 66.9656 192.356 66.9613 191.961 66.9613C191.556 66.9613 191.191 66.9656 190.864 66.9742C190.546 66.9742 190.296 66.9828 190.116 67V66.4968C190.537 66.4796 190.86 66.4366 191.083 66.3677C191.307 66.2989 191.458 66.1785 191.535 66.0065C191.612 65.8344 191.651 65.5892 191.651 65.271V59.4774C191.651 59.1591 191.612 58.9269 191.535 58.7806C191.466 58.6344 191.324 58.5312 191.109 58.471C190.894 58.4108 190.563 58.3763 190.116 58.3677V57.8645C190.305 57.8731 190.559 57.8817 190.877 57.8903C191.195 57.8989 191.552 57.9032 191.948 57.9032C192.249 57.9032 192.52 57.8989 192.761 57.8903C193.01 57.8817 193.208 57.8731 193.354 57.8645L196.219 65.8L195.819 65.8258L198.374 57.8645C198.649 57.8817 198.89 57.8946 199.096 57.9032C199.311 57.9032 199.526 57.9032 199.741 57.9032C200.129 57.9032 200.498 57.8989 200.851 57.8903C201.204 57.8817 201.479 57.8731 201.677 57.8645V58.3677C201.238 58.3763 200.907 58.4108 200.683 58.471C200.46 58.5312 200.313 58.6344 200.245 58.7806C200.176 58.9269 200.141 59.1591 200.141 59.4774V65.3871C200.141 65.6968 200.176 65.929 200.245 66.0839C200.322 66.2301 200.468 66.3333 200.683 66.3935C200.907 66.4452 201.238 66.4796 201.677 66.4968V67C201.453 66.9828 201.161 66.9742 200.799 66.9742C200.438 66.9656 200.03 66.9613 199.574 66.9613C199.135 66.9613 198.744 66.9656 198.399 66.9742C198.055 66.9742 197.789 66.9828 197.599 67V66.4968C197.995 66.4796 198.288 66.4409 198.477 66.3806C198.666 66.3204 198.791 66.2172 198.851 66.071C198.911 65.9161 198.941 65.6882 198.941 65.3871V58.471H198.722L195.935 67.0903H195.47ZM203.762 67V66.4968C204.313 66.4882 204.696 66.4194 204.911 66.2903C205.134 66.1613 205.246 65.9204 205.246 65.5677V61.9935C205.246 61.5978 205.139 61.314 204.923 61.1419C204.708 60.9699 204.321 60.8753 203.762 60.8581V60.3548C203.934 60.3634 204.111 60.372 204.291 60.3806C204.48 60.3892 204.67 60.3935 204.859 60.3935C205.151 60.3935 205.427 60.3806 205.685 60.3548C205.951 60.3204 206.192 60.2731 206.407 60.2129V65.5677C206.407 65.9204 206.515 66.1613 206.73 66.2903C206.954 66.4194 207.341 66.4882 207.891 66.4968V67C207.762 66.9914 207.582 66.9871 207.349 66.9871C207.126 66.9785 206.88 66.9699 206.614 66.9613C206.347 66.9527 206.08 66.9484 205.814 66.9484C205.427 66.9484 205.035 66.957 204.64 66.9742C204.253 66.9828 203.96 66.9914 203.762 67ZM205.788 58.8065C205.556 58.8065 205.354 58.7247 205.182 58.5613C205.018 58.3892 204.936 58.1871 204.936 57.9548C204.936 57.7226 205.018 57.5247 205.182 57.3613C205.354 57.1892 205.556 57.1032 205.788 57.1032C206.02 57.1032 206.218 57.1892 206.382 57.3613C206.545 57.5247 206.627 57.7226 206.627 57.9548C206.627 58.1871 206.545 58.3892 206.382 58.5613C206.218 58.7247 206.02 58.8065 205.788 58.8065ZM214.279 67V66.4968C214.666 66.4882 214.929 66.4194 215.066 66.2903C215.213 66.1527 215.286 65.9118 215.286 65.5677V62.5742C215.286 61.9978 215.174 61.5634 214.95 61.271C214.727 60.9785 214.391 60.8323 213.944 60.8323C213.583 60.8323 213.243 60.9355 212.924 61.1419C212.615 61.3398 212.34 61.6323 212.099 62.0194L212.112 61.4516C212.327 61.0559 212.632 60.7462 213.028 60.5226C213.432 60.2903 213.875 60.1742 214.357 60.1742C215.028 60.1742 215.544 60.3892 215.905 60.8194C216.266 61.2409 216.447 61.8473 216.447 62.6387V65.5677C216.447 65.9118 216.555 66.1527 216.77 66.2903C216.985 66.4194 217.372 66.4882 217.931 66.4968V67C217.802 66.9914 217.621 66.9871 217.389 66.9871C217.165 66.9785 216.92 66.9699 216.654 66.9613C216.387 66.9527 216.129 66.9484 215.879 66.9484C215.57 66.9484 215.264 66.957 214.963 66.9742C214.662 66.9828 214.434 66.9914 214.279 67ZM209.531 67V66.4968C210.09 66.4882 210.477 66.4194 210.692 66.2903C210.907 66.1527 211.015 65.9118 211.015 65.5677V61.9935C211.015 61.5892 210.903 61.3054 210.679 61.1419C210.456 60.9699 210.073 60.8753 209.531 60.8581V60.3548C209.703 60.3634 209.879 60.372 210.06 60.3806C210.241 60.3892 210.43 60.3935 210.628 60.3935C210.912 60.3935 211.183 60.3806 211.441 60.3548C211.699 60.3204 211.944 60.2731 212.176 60.2129V65.5677C212.176 65.9118 212.249 66.1527 212.395 66.2903C212.542 66.4194 212.804 66.4882 213.183 66.4968V67C212.985 66.9914 212.744 66.9828 212.46 66.9742C212.176 66.957 211.879 66.9484 211.57 66.9484C211.217 66.9484 210.851 66.957 210.473 66.9742C210.103 66.9828 209.789 66.9914 209.531 67ZM224.648 67.1419V58.6645C224.648 58.2688 224.536 57.9849 224.312 57.8129C224.097 57.6409 223.714 57.5462 223.164 57.529V57.0258C223.336 57.0344 223.512 57.043 223.693 57.0516C223.882 57.0602 224.071 57.0645 224.261 57.0645C224.545 57.0645 224.816 57.0516 225.074 57.0258C225.332 56.9914 225.577 56.9441 225.809 56.8839V65.3613C225.809 65.757 225.917 66.0452 226.132 66.2258C226.355 66.3978 226.742 66.4882 227.293 66.4968V67C227.121 66.9914 226.945 66.9828 226.764 66.9742C226.583 66.9656 226.398 66.9613 226.209 66.9613C225.925 66.9613 225.65 66.9742 225.383 67C225.125 67.0344 224.88 67.0817 224.648 67.1419ZM222.609 67.1806C222.05 67.1806 221.564 67.043 221.151 66.7677C220.747 66.4925 220.433 66.0968 220.209 65.5806C219.985 65.0645 219.874 64.4538 219.874 63.7484C219.874 63.0086 219.994 62.372 220.235 61.8387C220.484 61.3054 220.833 60.8968 221.28 60.6129C221.736 60.3204 222.269 60.1742 222.88 60.1742C223.388 60.1742 223.809 60.286 224.145 60.5097C224.48 60.7333 224.695 61.0086 224.79 61.3355L224.699 61.7484C224.596 61.4645 224.403 61.228 224.119 61.0387C223.843 60.8495 223.508 60.7548 223.112 60.7548C222.484 60.7548 221.994 61.0086 221.641 61.5161C221.297 62.0237 221.125 62.7419 221.125 63.671C221.125 64.5828 221.289 65.2882 221.616 65.7871C221.951 66.286 222.416 66.5355 223.009 66.5355C223.439 66.5355 223.805 66.3935 224.106 66.1097C224.416 65.8172 224.631 65.4215 224.751 64.9226L224.828 65.3871C224.708 65.9548 224.454 66.3978 224.067 66.7161C223.68 67.0258 223.194 67.1806 222.609 67.1806ZM232.275 67.1806C231.905 67.1806 231.591 67.1376 231.333 67.0516C231.084 66.9742 230.877 66.9011 230.714 66.8323C230.559 66.7548 230.421 66.7161 230.301 66.7161C230.112 66.7161 229.97 66.8495 229.875 67.1161H229.372C229.398 66.9183 229.415 66.6989 229.424 66.4581C229.432 66.2086 229.436 65.929 229.436 65.6194C229.436 65.3011 229.436 64.9398 229.436 64.5355H229.927C230.039 65.2581 230.275 65.7957 230.636 66.1484C231.006 66.5011 231.501 66.6774 232.12 66.6774C232.585 66.6774 232.942 66.5785 233.191 66.3806C233.441 66.1742 233.566 65.8903 233.566 65.529C233.566 65.1849 233.436 64.9097 233.178 64.7032C232.929 64.4882 232.49 64.2946 231.862 64.1226C231.08 63.9075 230.503 63.628 230.133 63.2839C229.772 62.9398 229.591 62.5097 229.591 61.9935C229.591 61.4344 229.776 60.9914 230.146 60.6645C230.516 60.3376 231.006 60.1742 231.617 60.1742C231.953 60.1742 232.236 60.2129 232.469 60.2903C232.701 60.3677 232.895 60.4495 233.049 60.5355C233.213 60.6129 233.359 60.6516 233.488 60.6516C233.574 60.6516 233.647 60.6215 233.707 60.5613C233.768 60.4925 233.819 60.3892 233.862 60.2516H234.366C234.348 60.4323 234.335 60.6258 234.327 60.8323C234.318 61.0301 234.31 61.2624 234.301 61.529C234.301 61.7871 234.305 62.1011 234.314 62.471H233.811C233.733 61.9204 233.51 61.486 233.14 61.1677C232.77 60.8409 232.318 60.6774 231.785 60.6774C231.415 60.6774 231.123 60.7634 230.907 60.9355C230.701 61.1075 230.598 61.357 230.598 61.6839C230.598 62.0194 230.74 62.2989 231.024 62.5226C231.307 62.7462 231.789 62.957 232.469 63.1548C233.217 63.3613 233.755 63.6237 234.082 63.9419C234.417 64.2602 234.585 64.6774 234.585 65.1935C234.585 65.8129 234.378 66.2989 233.966 66.6516C233.561 67.0043 232.998 67.1806 232.275 67.1806ZM240.284 67.1806C239.665 67.1806 239.127 67.043 238.671 66.7677C238.216 66.4839 237.863 66.0796 237.613 65.5548C237.364 65.0301 237.239 64.4108 237.239 63.6968C237.239 62.9828 237.364 62.3634 237.613 61.8387C237.863 61.3054 238.22 60.8968 238.684 60.6129C239.157 60.3204 239.717 60.1742 240.362 60.1742C240.912 60.1742 241.39 60.286 241.794 60.5097C242.207 60.7247 242.521 61.0645 242.736 61.529C242.96 61.9935 243.063 62.5957 243.046 63.3355H238.001L237.988 62.8452H241.807C241.824 62.4323 241.777 62.0624 241.665 61.7355C241.562 61.4086 241.394 61.1505 241.162 60.9613C240.938 60.7634 240.65 60.6645 240.297 60.6645C239.85 60.6645 239.454 60.8538 239.11 61.2323C238.766 61.6022 238.564 62.1785 238.504 62.9613L238.517 63C238.508 63.0946 238.499 63.1935 238.491 63.2968C238.491 63.4 238.491 63.5075 238.491 63.6194C238.491 64.5398 238.671 65.2495 239.033 65.7484C239.394 66.2473 239.91 66.4968 240.581 66.4968C241.011 66.4968 241.398 66.3892 241.742 66.1742C242.087 65.9591 242.366 65.628 242.581 65.1806L243.046 65.4516C242.822 65.9849 242.469 66.4065 241.988 66.7161C241.506 67.0258 240.938 67.1806 240.284 67.1806ZM248.334 67.1806C247.698 67.1806 247.22 66.9957 246.902 66.6258C246.584 66.2473 246.425 65.6796 246.425 64.9226V60.871H244.864V60.3677H246.425V58.3935C246.648 58.3763 246.855 58.3548 247.044 58.329C247.242 58.3032 247.423 58.2645 247.586 58.2129V60.3677H249.896V60.871H247.586V65.271C247.586 65.6925 247.668 66.0065 247.831 66.2129C247.995 66.4108 248.248 66.5097 248.593 66.5097C248.919 66.5097 249.186 66.4065 249.393 66.2C249.599 65.9935 249.754 65.6925 249.857 65.2968L250.257 65.4C250.128 66.0022 249.909 66.4495 249.599 66.7419C249.289 67.0344 248.868 67.1806 248.334 67.1806Z" fill="black"/>
<line x1="182.5" y1="50" x2="182.5" y2="75" stroke="#8C7E6C"/>
</svg>
