<svg width="540" height="536" viewBox="0 0 540 536" fill="none" xmlns="http://www.w3.org/2000/svg">
<g opacity="0.8">
<path d="M121.219 468.778C121.09 468.199 121 467.392 121 466.809C121 466.361 120.462 465.46 120.839 464.989C121.525 464.131 121.728 462.476 122.198 461.419C122.741 460.195 122.504 458.586 123.177 457.376C123.428 456.924 123.666 455.928 123.695 455.407C123.733 454.715 124.291 454.067 124.524 453.426C124.996 452.128 125.914 450.705 126.597 449.51C127.347 448.198 128.685 447.347 129.592 446.181C130.493 445.022 131.75 443.879 133.024 443.129C134.268 442.397 135.089 440.74 136.295 439.858C137.521 438.962 138.548 437.661 139.865 437.002C141.245 436.312 142.295 435.188 143.597 434.422C144.278 434.022 144.831 433.344 145.566 433.017C145.992 432.828 147.047 432.436 147.328 432.084C147.723 431.591 148.979 430.999 149.563 430.783C150.36 430.487 151.069 429.909 151.797 429.493C152.936 428.842 154.097 427.804 155.413 427.616C157.047 427.382 158.349 426.383 160.078 426.383C161.548 426.383 162.829 425.416 164.12 424.771C166.651 423.506 169.175 422.078 171.687 420.682C174.183 419.296 176.909 418.442 179.461 417.308C180.659 416.775 182.45 416.225 183.769 416.225C184.667 416.225 185.171 415.797 185.992 415.615C186.531 415.495 187.391 415.395 187.8 415.027C188.28 414.595 189.152 414.573 189.723 414.256C190.475 413.838 191.363 413.819 192.153 413.576C193.111 413.281 194.131 413.28 195.102 413.104C195.894 412.96 196.481 412.392 197.186 412.079C198.54 411.477 199.683 410.319 201.114 409.798C202.436 409.318 203.819 408.815 205.076 408.244C205.591 408.009 206.678 407.584 207.241 407.518C207.956 407.434 208.572 406.718 209.222 406.481C210.164 406.139 211.051 405.673 212.009 405.399C213.082 405.092 214.236 404.115 215.326 403.994C216.52 403.861 218.183 402.715 219.265 402.174C220.916 401.348 222.22 400.677 224.079 400.677C225.567 400.677 227.743 401.07 229.17 400.631C230.887 400.102 232.642 399.52 234.399 399.018C237.731 398.066 241.024 397.982 244.557 397.982C245.956 397.982 247.169 398.737 248.496 398.811C248.837 398.83 250.166 399.085 250.361 399.329C250.425 399.408 251.753 399.993 251.928 400.043C252.405 400.179 252.922 400.489 253.31 400.838C253.816 401.293 254.465 401.298 255.026 401.61C256.166 402.243 257.607 402.358 258.343 403.683C258.921 404.724 259.244 406.011 260.013 407C260.877 408.11 262.278 408.952 263.215 410.006C264.151 411.059 265.085 412.176 266.071 413.161C266.338 413.428 266.566 413.771 266.843 414.048C267.098 414.303 267.599 414.449 267.776 414.67C268.022 414.978 269.046 415.177 269.434 415.35C270.475 415.812 271.327 416.359 272.336 416.893C273.299 417.402 273.93 418.505 275.135 418.505C276.215 418.505 277.739 419.51 278.867 419.761C279.334 419.865 279.866 420.476 280.214 420.786C280.712 421.229 282.336 421.453 283.013 421.604C284.392 421.91 285.602 422.547 286.952 422.847C287.648 423.002 288.194 423.233 288.921 423.274C289.575 423.31 290.164 423.896 290.787 423.896C296.033 423.896 300.932 425.554 306.128 425.554" stroke="#8C7E6C" stroke-width="2" stroke-linecap="round"/>
<path d="M305.092 425.554C307.234 425.554 309.376 425.554 311.518 425.554C312.334 425.554 312.989 425.148 313.706 424.944C314.533 424.707 315.309 424.725 316.183 424.725C318.221 424.725 320.26 424.725 322.298 424.725C323.979 424.725 325.607 424.932 327.274 424.932C328.99 424.932 330.527 424.927 331.927 426.072C332.848 426.826 334.964 426.383 336.142 426.383C337.056 426.383 337.969 426.383 338.883 426.383C340.729 426.383 342.666 426.176 344.573 426.176C347.416 426.176 350.265 426.383 353.142 426.383C356.091 426.383 358.919 427.005 361.883 427.005C367.336 427.005 372.805 426.991 378.226 426.798C379.197 426.763 380.092 426.383 381.071 426.383C381.9 426.383 382.729 426.383 383.559 426.383C385.502 426.383 387.617 426.59 389.628 426.59C390.887 426.59 392.147 426.59 393.406 426.59C394.599 426.59 395.751 427.005 396.93 427.005C399.234 427.005 401.657 427.212 404.025 427.212C409.043 427.212 414.061 426.798 419.112 426.798C420.318 426.798 421.523 426.798 422.729 426.798C423.621 426.798 424.401 427.39 425.17 427.42C427.88 427.524 430.613 427.42 433.325 427.42C435.596 427.42 437.847 427.834 440.051 427.834C441.801 427.834 444.103 427.926 445.752 428.56C446.857 428.985 448.061 429.044 449.126 429.7C450.595 430.604 452.241 431.224 453.687 432.188C455.334 433.286 457.03 434.298 458.812 435.09C459.748 435.506 460.595 436.572 461.45 437.163C462.162 437.656 463.514 438.682 463.937 439.444C464.486 440.43 465.349 441.109 465.757 442.231C465.945 442.746 466.486 443.115 466.575 443.694C466.721 444.641 466.969 445.374 467.324 446.285C467.85 447.638 468.597 448.869 469.028 450.27C469.321 451.223 469.959 452.351 470.099 453.334C470.403 455.463 470.525 457.535 470.525 459.714C470.525 460.877 470.61 461.971 470.214 463.077C469.839 464.129 469.176 465.104 468.867 466.187C468.343 468.02 467.303 469.483 465.965 470.748C464.373 472.251 461.863 473.919 459.642 474.26C459.018 474.356 458.33 474.143 457.718 474.318C457.099 474.495 456.41 474.687 455.76 474.687C454.452 474.687 452.965 474.488 451.706 474.848C449.495 475.479 446.711 475.101 444.404 475.101C441.72 475.101 439.061 474.272 436.365 474.272C434.117 474.272 431.942 474.065 429.685 474.065C427.703 474.065 425.806 473.65 423.88 473.65C422.668 473.65 421.445 473.235 420.195 473.235C418.867 473.235 417.538 473.235 416.21 473.235C413.911 473.235 411.732 472.821 409.461 472.821C407.111 472.821 404.871 473.15 402.574 473.235C399.893 473.335 397.36 474.065 394.65 474.065C390.037 474.065 385.561 474.687 380.956 474.687C379.43 474.687 377.906 474.479 376.36 474.479C375.302 474.479 374.217 474.488 373.193 474.26C372.196 474.039 371.421 473.857 370.348 473.857C368.838 473.857 367.413 473.443 365.88 473.443C361.209 473.443 356.794 471.577 352.151 471.577C344.979 471.577 337.997 469.972 330.959 468.721C328.654 468.311 326.236 468.398 324.06 467.431C322.297 466.647 320.361 466.159 318.567 465.404C317.234 464.843 315.738 464.611 314.421 463.952C313.803 463.644 312.785 463.313 312.347 462.766C312.119 462.48 311.029 462.663 310.689 462.663C309.871 462.663 309.188 462.214 308.409 462.041C306.758 461.674 305.05 461.407 303.433 460.958C301.696 460.476 300.228 459.42 298.458 458.977C296.93 458.595 295.601 457.84 294.116 457.376C293.212 457.094 292.26 456.702 291.513 456.121C290.528 455.355 289.39 454.845 288.345 454.163C287.396 453.542 286.413 452.759 285.397 452.251C284.46 451.783 283.683 450.711 282.702 450.431C281.866 450.192 280.405 449.209 279.696 448.658C277.913 447.271 276.058 445.981 274.41 444.419C273.568 443.622 272.683 442.615 271.611 442.139C270.867 441.808 269.696 440.895 268.904 440.895C267.92 440.895 266.886 440.191 265.956 439.904C264.787 439.545 263.65 439.029 262.397 439.029C260.743 439.029 259.402 438.701 257.871 438.154C256.563 437.687 255.164 437.278 253.886 436.703C251.95 435.831 249.615 435.804 247.77 434.779C246.892 434.291 245.513 434.433 244.557 434.008C243.252 433.427 242.18 433.373 240.825 433.063C239.739 432.815 237.888 432.771 236.99 432.073C236.035 431.33 234.81 431.464 233.673 430.852C232.35 430.139 230.69 430.16 229.377 429.286C228.188 428.493 226.596 427.621 225.231 427.166C223.146 426.471 221.354 424.985 219.369 424.103C218.418 423.68 217.518 422.964 216.57 422.49C216.02 422.215 214.514 421.857 214.29 421.408" stroke="#8C7E6C" stroke-width="2" stroke-linecap="round"/>
<path d="M214.289 421.408C213.579 421.408 212.851 420.938 212.113 420.774C211.387 420.613 210.619 420.306 209.936 420.003C208.544 419.384 207.159 418.821 205.79 418.137C204.382 417.433 202.029 416.064 200.4 416.018C199.153 415.982 197.849 415.714 196.668 415.292C196.205 415.127 195.733 414.965 195.263 414.82C194.988 414.735 194.447 414.904 194.226 414.728C193.531 414.172 192.197 414.277 191.29 414.163C190.184 414.025 189.14 413.945 188.007 413.945C186.323 413.945 184.736 413.323 183.032 413.323C180.106 413.323 177.255 412.908 174.279 412.908C171.787 412.908 168.753 412.404 167.483 410.006C166.82 408.753 167.78 407.725 169.096 407.725C169.657 407.725 170.569 407.553 171.065 407.829C171.52 408.081 172.521 408.494 173.035 408.554C173.15 408.568 173.574 408.821 173.53 408.865C173.24 409.156 172.375 408.61 172.102 408.462C171.327 408.045 170.499 407.699 169.718 407.265C168.271 406.461 167.195 405.49 166.447 403.994C166.176 403.451 163.851 401.077 165.157 400.308C166.506 399.515 168.42 399.73 169.879 400.216C172.033 400.934 174.285 401.163 176.352 402.082C177.437 402.564 173.99 401.574 173.564 401.506C172.366 401.314 171.403 400.326 170.132 400.262C169.008 400.206 161.568 398.379 163.706 396.116C165.061 394.68 166.679 394.891 168.474 394.503C169.915 394.192 171.407 394.665 172.827 394.665C173.694 394.665 174.951 394.736 175.73 395.125C176.443 395.482 177.24 395.289 177.918 395.598C178.502 395.863 179.438 396.116 180.083 396.116C181.19 396.116 184.39 396.772 183.4 396.277C182.211 395.682 180.154 395.152 178.839 395.079C177.099 394.983 175.422 394.25 173.657 394.25C172.053 394.25 169.91 393.678 168.474 392.96C167.464 392.455 165.752 392.694 164.904 392.016C164.501 391.694 163.909 391.965 163.498 391.451C163.065 390.91 162.876 390.861 162.876 390.104C162.876 388.775 163.279 387.705 164.535 387.04C165.621 386.465 166.388 385.377 167.437 384.76C168.926 383.884 170.365 383.019 172.044 382.479C176.193 381.146 181.116 381.811 185.473 381.811C187.066 381.811 188.63 382.556 190.241 382.641C191.922 382.729 194.095 383.345 195.632 384.092C197.392 384.947 199.777 385.704 201.229 386.994C201.746 387.454 202.699 387.343 203.198 387.731C203.975 388.336 205.092 388.526 205.951 389.067C206.741 389.565 207.142 390.491 208.082 390.726C209.128 390.987 210.425 391.509 211.387 392.016C212.714 392.714 213.968 393.593 215.234 394.296C215.959 394.699 217.074 395.699 217.653 396.277C218.523 397.148 219.842 397.662 220.923 398.143C221.747 398.509 224.083 398.282 224.862 397.936C225.391 397.7 226.173 397.685 226.613 397.245C227.037 396.82 227.26 396.176 227.603 395.747C227.91 395.364 227.871 394.447 227.983 393.939C228.123 393.312 228.288 392.555 228.548 391.97C228.79 391.426 228.594 390.376 228.594 389.793C228.594 389.102 228.766 388.463 228.801 387.823C228.877 386.463 229.561 385.206 229.63 383.885C229.726 382.074 230.874 380.269 230.874 378.494C230.874 377.124 231.573 375.39 232.164 374.141C232.507 373.417 232.83 372.695 233.155 371.964C233.448 371.305 234.109 370.788 234.353 370.156C234.934 368.644 236.383 367.55 237.048 366.056C237.653 364.693 238.924 363.523 239.627 362.117C241.214 358.945 242.139 355.422 243.681 352.166C245.138 349.09 245.291 345.538 246.676 342.422C248.053 339.325 247.666 336.074 247.666 332.679C247.666 330.653 247.459 328.697 247.459 326.713C247.459 325.954 246.686 325.225 246.423 324.502C246.096 323.603 245.951 322.638 245.639 321.737C244.697 319.014 244.106 316.461 242.852 313.814C241.912 311.829 242.042 309.314 241.079 307.387C240.489 306.207 239.783 305.089 239.374 303.863" stroke="#8C7E6C" stroke-width="2" stroke-linecap="round"/>
<path d="M242.069 309.875C242.069 308.29 241.548 307.289 240.871 305.936C240.476 305.145 240.174 304.61 239.985 303.759C239.834 303.081 239.909 302.216 239.628 301.582C238.95 300.059 239.177 298.243 238.706 296.653C238.195 294.926 237.569 293.241 237.082 291.539C236.875 290.815 236.661 289.954 236.426 289.19C236.227 288.544 236.266 287.53 235.954 286.967C235.53 286.204 235.787 285.171 235.389 284.375C235.078 283.752 234.606 282.798 234.606 282.095C234.606 280.544 234.606 278.993 234.606 277.442C234.606 276.319 234.979 274.435 234.56 273.388C234.193 272.471 234.243 271.34 233.973 270.393C233.778 269.713 233.362 268.856 233.362 268.09C233.362 265.765 232.326 263.489 232.326 261.168C232.326 259.403 231.911 257.674 231.911 255.87C231.911 255.145 231.911 254.419 231.911 253.693C231.911 253.021 232.607 252.067 232.222 252.761C231.601 253.879 231.774 256.361 231.704 257.632C231.662 258.389 231.496 259.054 231.496 259.809C231.496 260.433 231.386 261.612 231.128 262.193C230.611 263.356 230.46 265.18 230.46 266.443C230.46 267.777 230.124 269.456 229.826 270.797C229.538 272.093 229.35 273.441 228.755 274.632C228.059 276.024 227.615 277.579 227.557 279.147C227.513 280.34 227.712 281.329 227.131 282.394C226.905 282.809 226.652 283.227 226.417 283.65C226.213 284.017 226.388 284.445 226.268 284.836C225.833 286.248 226.106 288.075 226.106 289.558C226.106 290.679 225.692 291.741 225.692 292.875C225.692 294.304 225.386 295.752 225.081 297.125C224.58 299.382 224.545 301.765 224.033 304.07C223.807 305.089 223.672 306.23 223.25 307.18C222.76 308.281 223.033 309.72 222.743 310.911C222.355 312.508 222.65 314.153 222.26 315.714C221.849 317.356 222.124 319.103 221.592 320.701C221.247 321.734 220.92 322.822 220.728 323.88C220.567 324.762 220.09 325.495 219.898 326.356C219.484 328.222 219.544 330.395 218.747 332.149C218.292 333.149 218.09 334.335 217.653 335.374C217.239 336.357 216.834 337.415 216.57 338.472C216.295 339.57 215.935 340.686 215.579 341.754C215.209 342.867 215.105 344.498 214.382 345.428C213.711 346.291 213.781 347.19 213.622 348.227C213.334 350.095 213.242 352.093 212.424 353.824C211.991 354.741 211.784 355.722 211.284 356.623C210.825 357.448 210.235 358.179 209.775 359.007C208.814 360.737 207.98 362.768 206.723 364.305C205.64 365.628 204.988 367.344 204.131 368.843C203.791 369.438 202.97 370.091 202.473 370.617C202.224 370.88 201.508 372.21 201.229 371.653" stroke="#8C7E6C" stroke-width="2" stroke-linecap="round"/>
<path d="M202.887 370.202C201.042 370.202 199.067 372.683 198.119 373.98C197.411 374.948 196.436 375.93 195.631 376.836C194.91 377.648 194.455 378.634 193.662 379.427C192.177 380.913 190.938 382.658 189.458 384.138C187.797 385.799 185.826 387.263 184.126 388.964C182.395 390.694 180.451 392.223 178.736 393.939C177.181 395.494 176.347 397.598 174.9 399.225C173.85 400.407 173.157 401.92 172.044 403.118C171.002 404.241 170.489 405.71 169.418 406.781C167.833 408.365 166.484 410.246 164.949 411.871C163.509 413.397 161.917 414.867 160.55 416.386C159.496 417.557 157.459 418.603 156.335 417.158C155.625 416.246 155.206 415.468 155.206 414.256C155.206 413.47 154.932 412.644 154.169 412.24C153.516 411.894 152.747 410.873 152.096 410.835C151.533 410.802 150.163 410.063 149.701 409.798C148.97 409.381 148.165 408.786 147.743 408.048C147.325 407.316 146.284 407.294 145.577 407.092C143.757 406.572 142.754 405.414 141.892 403.786C141.433 402.92 140.366 402.437 140.026 401.552C139.687 400.671 138.618 399.515 137.884 398.915C136.719 397.961 136.045 397.804 134.578 397.579C133.291 397.38 131.84 397.567 130.536 397.567C129.417 397.567 128.519 397.221 127.472 396.899C126.514 396.604 125.622 396.607 124.731 396.162C123.118 395.355 119.896 395.808 118.408 396.634C116.747 397.557 115.325 399.146 113.905 400.423C112.481 401.705 110.841 403.154 110.841 405.134C110.841 405.455 110.975 406.165 110.795 406.435C110.752 406.5 111.851 406.311 111.993 406.274C112.773 406.071 113.549 405.63 114.251 405.237C116.019 404.247 117.831 403.767 119.652 402.957C121.363 402.197 123.099 401.457 124.478 400.216C125.157 399.604 125.873 398.782 126.344 397.982C126.726 397.332 125.512 398.385 125.353 398.5C124.504 399.114 123.504 399.766 122.75 400.469C121.516 401.621 119.698 402.203 118.397 403.268C117.435 404.055 116.062 404.686 114.988 405.284C113.414 406.158 112.054 407.703 110.219 407.933C109.08 408.075 107.11 411.14 107.11 412.182C107.11 413.147 107.199 414.216 106.799 415.096C106.12 416.59 106.227 418.166 105.82 419.749C105.25 421.967 105.781 423.825 106.799 425.658C107.315 426.587 107.904 427.385 108.665 428.145C109.353 428.833 109.915 429.664 110.68 430.276C111.861 431.221 114.828 430.513 115.702 429.389C116.329 428.583 117.061 427.427 117.061 426.383C117.061 425.028 117.683 423.643 117.683 422.283C117.683 419.039 118.074 415.519 117.671 412.298C117.512 411.024 116.729 409.704 116.45 408.451C116.276 407.669 116.046 406.705 115.091 406.493C114.026 406.256 113.951 408.013 113.951 408.658C113.951 409.691 113.368 410.703 113.329 411.71C113.278 413.031 112.707 414.232 112.707 415.603C112.707 416.743 112.707 417.883 112.707 419.024C112.707 420.059 112.581 421.183 113.018 422.145C113.264 422.685 113.174 423.371 113.421 423.895C113.95 425.014 114.765 426.041 115.241 427.166C116.205 429.444 118.235 430.943 119.387 433.017C120.234 434.542 122.335 435.505 124.006 435.505C124.847 435.505 126.15 434.685 126.39 433.846C126.637 432.982 127.665 432.17 128.094 431.359C129.305 429.071 129.499 426.335 129.499 423.792C129.499 421.517 129.551 419.309 129.073 417.158C128.649 415.248 127.643 413.241 126.85 411.457C126.2 409.993 125.166 406.286 122.762 407.622C121.972 408.06 121.804 409.62 121.518 410.42C121.028 411.793 121 413.159 121 414.613C121 417.621 121.337 420.17 122.082 423.066C122.335 424.049 122.55 425.026 122.969 425.957C123.354 426.812 124.072 427.438 124.478 428.249C125.238 429.769 125.641 431.328 126.712 432.706C127.469 433.679 128.633 434.635 129.603 435.39C130.301 435.932 130.643 436.334 131.572 436.334C132.513 436.334 133.814 435.121 133.853 434.1C133.915 432.487 134.06 430.867 134.06 429.286C134.06 428.136 134.682 427.028 134.682 425.853C134.682 424.559 134.805 422.981 135.085 421.719C135.215 421.135 134.913 419.73 135.408 419.335C135.668 419.127 136.734 417.227 136.755 416.847C136.845 415.227 136.074 413.197 135.097 411.975C134.551 411.292 134.248 410.351 133.738 409.695C132.478 408.075 132.396 409.549 131.204 410.42C129.062 411.985 127.781 415.004 126.85 417.423C125.612 420.641 125.012 424.418 126.286 427.731C127.452 430.763 128.99 432.975 131.987 434.307C132.714 434.63 132.402 432.034 132.402 431.359C132.402 430.136 132.401 429.064 132.931 427.926C133.715 426.248 134.2 424.732 134.774 423.009C134.8 422.93 134.407 423.997 134.314 424.011C133.869 424.074 134.773 423.239 134.993 422.847C135.768 421.469 136.746 420.02 137.999 419.035C138.703 418.482 139.552 418.115 140.326 417.676C141.002 417.293 142.557 416.696 143.343 416.64C146.487 416.415 150.035 415.516 153.029 416.847C154.743 417.609 156.342 419.474 156.45 421.408C156.483 422.01 156.387 422.501 156.242 423.078C156.079 423.73 155.413 424.06 155.413 424.725C155.413 425.97 154.285 426.607 153.755 427.535C153.132 428.625 152.134 429.434 151.175 430.218C149.388 431.68 147.521 433.174 145.462 434.261C143.859 435.107 142.623 436.342 140.855 436.91C139.55 437.329 138.216 437.371 136.859 437.371C135.721 437.371 135.307 437.29 134.36 436.749C133.395 436.198 133.153 435.712 131.987 435.712" stroke="#8C7E6C" stroke-width="2" stroke-linecap="round"/>
<path d="M125.768 396.323C128.29 396.323 130.812 396.323 133.334 396.323C134.481 396.323 135.708 396.434 136.755 396.899C137.128 397.065 137.618 397.008 137.999 397.198C138.432 397.415 138.786 397.799 139.243 398.028C140.854 398.833 141.808 399.225 143.7 399.225C145.06 399.225 146.39 396.601 146.706 395.494C147.241 393.622 148.652 391.823 149.562 390.104C149.747 389.754 150.064 389.45 150.276 389.067C150.568 388.541 150.626 388.142 150.852 387.57C151.274 386.503 151.804 385.526 152.257 384.506C152.99 382.857 152.793 380.765 153.651 379.22C154.187 378.256 153.948 376.86 154.48 375.903C155.13 374.732 155.737 373.157 156.139 371.872C156.778 369.826 156.875 367.586 157.739 365.641C158.592 363.722 158.66 361.657 159.271 359.618C159.816 357.801 160.073 355.977 160.803 354.193C161.461 352.584 162.081 350.81 162.876 349.264C163.952 347.173 165.032 345.511 166.654 343.827C168.17 342.253 170.095 340.446 171.076 338.483C171.767 337.103 172.776 335.633 173.864 334.545C175.189 333.219 175.765 331.353 176.973 329.972C178.872 327.802 179.639 324.903 180.866 322.313C181.487 321.002 181.949 319.193 181.949 317.752" stroke="#8C7E6C" stroke-width="2" stroke-linecap="round"/>
<path d="M179.823 325.839C179.823 325.051 181.399 316.455 181.638 315.691C181.848 315.017 182.326 313.874 182.364 313.192C182.481 311.068 182.883 309.059 183.181 306.972C183.563 304.299 184.698 301.07 184.698 298.362C184.698 295.91 185.309 294.049 185.888 291.631C186.717 288.17 186.717 286.95 186.717 284.583C186.717 282.962 187.226 281.448 187.339 279.861C187.433 278.54 188.103 277.257 188.387 275.979C188.696 274.591 188.592 272.862 189.113 271.522C189.768 269.838 189.982 267.979 190.656 266.293C191.096 265.194 192.107 263.502 192.107 262.297C192.107 260.292 192.381 258.199 192.775 256.227C193.06 254.803 193.558 253.23 193.558 251.782C193.558 250.334 194.079 249.07 194.388 247.681C194.692 246.312 194.802 245.224 194.802 243.789C194.802 240.369 196.277 236.997 196.656 233.584C196.851 231.835 196.742 230.141 197.129 228.402C197.475 226.842 197.774 225.31 197.9 223.726C198.136 220.774 199.354 218.011 199.57 215.088C199.692 213.444 200.014 211.679 200.296 210.043C200.641 208.04 200.96 205.699 201.643 203.778C202.004 202.764 202.068 201.434 202.576 200.518C203.105 199.567 203.486 198.6 203.924 197.616C204.966 195.272 204.19 191.498 207.126 190.66C208.447 190.282 210.161 189.013 211.594 189.013" stroke="#8C7E6C" stroke-width="2" stroke-linecap="round"/>
<path d="M203.924 197.098C203.924 195.058 206.145 193.297 207.495 192.065C208.446 191.196 209.352 190.199 210.466 189.531C211.99 188.616 213.361 187.423 214.808 186.421C216.213 185.448 217.744 185.41 219.357 184.959C221.221 184.437 223.32 184.106 225.07 183.369C227.206 182.47 229.636 181.701 231.911 181.181C233.589 180.797 235.246 180.414 236.887 179.776C238.506 179.146 240.374 179.055 241.954 178.336C243.703 177.541 245.828 177.315 247.367 176.056C248.378 175.229 249.867 174.46 251.087 173.983C252.671 173.363 254.009 172.055 255.545 171.288C257.705 170.207 259.547 168.641 261.557 167.349C263.781 165.919 265.892 164.537 267.983 162.938C268.936 162.209 269.822 161.674 270.678 160.818C271.336 160.161 271.91 159.417 272.544 158.745C273.29 157.955 274.019 157.334 274.617 156.419C275.257 155.44 276.184 154.557 276.736 153.563C277.496 152.196 279.312 150.599 278.51 148.794C277.664 146.89 277.727 144.22 277.727 142.149C277.727 140.153 276.783 137.648 275.965 135.849C275.328 134.447 275.661 132.596 274.928 131.277C274.638 130.754 274.557 129.605 274.421 128.996C274.276 128.342 273.713 127.737 273.373 127.142C273.064 126.6 272.751 125.844 272.751 125.161C272.751 124.236 271.504 124.124 270.678 124.124C269.902 124.124 269.206 123.547 268.398 123.502C267.705 123.464 266.222 122.927 265.703 122.466C264.653 121.533 263.041 120.721 261.764 120.082C260.286 119.343 258.143 117.358 258.021 115.705C257.893 113.982 257.144 112.405 256.777 110.753C256.591 109.918 256.581 109.151 256.581 108.265C256.581 107.65 256.383 106.429 256.835 105.927C257.542 105.141 258.122 105.177 259.069 104.798C261.189 103.951 263.397 104.015 265.657 104.015C266.945 104.015 268.028 105.48 268.859 106.342C270.222 107.756 270.975 109.302 271.715 111.11C272.63 113.347 272.89 115.543 273.373 117.905C273.923 120.592 274.739 123.373 275.654 125.944C276.501 128.327 276.519 131.017 277.416 133.35C277.884 134.566 277.948 136.215 278.141 137.519C278.451 139.612 288.282 142.604 287.512 144.585M256.627 111.478C256.758 110.538 257.203 109.621 257.203 108.68C257.203 107.678 257.203 106.676 257.203 105.674C257.203 104.759 257.41 103.838 257.41 102.979" stroke="#8C7E6C" stroke-width="2" stroke-linecap="round"/>
<path d="M256.788 105.466C256.788 103.865 259.861 104.015 260.934 104.015C262.07 104.015 263.165 103.661 264.251 103.601C267.109 103.442 266.532 100.409 266.532 98.199C266.532 95.2775 266.074 92.7314 265.449 89.9181C265.086 88.2842 265.144 86.2089 266.209 84.839C266.645 84.2781 266.798 83.6276 267.05 82.9732C267.537 81.7056 268.463 80.695 269.342 79.6562C271.318 77.321 274.714 76.5435 276.851 74.3237C277.859 73.2773 278.887 71.9539 280.122 71.168C281.262 70.4427 282.489 69.8119 283.738 69.187C285.836 68.1381 288.146 67.0269 290.372 66.2847C292.412 65.6048 294.139 63.9646 296.177 63.3824C299.292 62.4924 302.653 62.0538 305.702 60.9868C308.561 59.9862 311.574 59.1489 314.628 59.2361C316.131 59.2791 318.159 60.9274 319.096 62.0348C320.151 63.2806 320.941 64.5141 321.676 65.9853C322.438 67.5077 324.122 68.3686 325.408 69.4404C329.149 72.5582 330.798 76.9058 330.798 81.7293C330.798 83.8443 330.74 85.9193 330.591 88.0062C330.497 89.3213 329.969 90.6795 329.969 91.9912C329.969 92.9023 329.989 94.144 331.12 94.4674C332.068 94.7382 333.133 91.5128 333.389 90.9431C334.124 89.3116 335.207 88.3873 336.188 86.9697C336.883 85.9652 337.691 84.8298 338.468 83.9061C339.357 82.8504 339.081 80.9024 339.309 79.6447C339.716 77.4067 339.997 75.0882 340.334 72.815C340.535 71.4578 340.542 70.144 340.542 68.7724C340.542 68.0828 340.587 67.3754 340.53 66.6878C340.472 65.9904 340.008 65.4507 339.92 64.7875C339.738 63.4263 338.911 61.8084 338.468 60.48C338.098 59.3698 337.707 58.2191 337.225 57.163C336.542 55.6707 336.243 53.6942 335.048 52.4986C334.074 51.5251 333.783 49.7275 332.975 48.5597C331.44 46.3425 329.34 44.5644 326.663 43.8952C325.626 43.6358 324.5 43.2664 323.542 42.8125C323.02 42.5653 322.308 42.454 321.884 42.0294C321.327 41.4727 321.145 40.7205 320.432 40.3248C319.162 39.6193 318.018 38.9712 316.689 38.3899C315.677 37.9471 314.931 37.3641 313.787 37.2497C312.792 37.1502 312.125 36.7928 311.299 36.3283C309.681 35.4182 308.489 34.254 306.543 34.1516C305.886 34.117 305.306 33.5959 304.677 33.5296C303.958 33.454 303.298 33.3488 302.558 33.3223C301.424 33.2819 300.356 32.9077 299.195 32.9077C297.622 32.9077 296.105 33.2504 294.611 33.737C292.519 34.4179 290.163 34.3799 288.138 35.2342C286.977 35.7238 286.585 36.3894 285.351 36.432C280.566 36.597 276.028 38.6861 272.141 41.4074C270.21 42.7586 268.279 43.8061 266.578 45.5076C265.147 46.9379 263.715 48.5921 262.593 50.2757C260.662 53.1712 259.169 56.4941 257.525 59.5471C257.251 60.0557 256.822 60.7369 256.788 61.3092C256.748 61.9933 255.434 63.123 255.13 63.843C254.313 65.7763 253.879 67.7049 253.264 69.7053C252.651 71.698 251.765 73.5 251.352 75.5676C251.128 76.6852 251.212 77.7951 251.191 78.9306C251.162 80.4407 250.776 81.9305 250.776 83.4454C250.776 84.0889 250.672 84.8348 250.788 85.4724C251.02 86.7525 252.031 88.002 252.55 89.181C253.3 90.885 254.826 92.3454 255.544 93.9606C255.945 94.8619 256.544 95.6396 256.949 96.552C257.194 97.1032 257.536 98.5684 258.032 98.8785C259.261 99.6465 260.459 101.735 262.075 101.735C262.441 101.735 262.775 101.942 263.215 101.942C263.51 101.942 264.659 101.768 263.791 101.735C262.716 101.693 261.644 101.527 260.52 101.527C258.312 101.527 257.209 99.1755 256.27 97.4849C255.155 95.4775 254.694 93.1995 253.471 91.162" stroke="#8C7E6C" stroke-width="2" stroke-linecap="round"/>
<path d="M331.005 95.9302C332.344 94.7258 334.021 93.9225 335.152 92.5096C335.986 91.4672 336.925 91.2953 338.054 90.7935C339.425 90.1843 340.512 91.1829 341.267 92.1065C342.481 93.5896 342.289 96.9433 341.532 98.6252C340.915 99.9971 340.389 101.681 339.183 102.668C337.565 103.991 336.683 104.72 335.566 106.457C334.526 108.076 334.6 110.113 333.804 111.882C333.114 113.415 332.538 115.106 331.731 116.558C330.914 118.028 330.26 120.01 329.808 121.637C329.035 124.419 327.545 127.339 325.915 129.71C325.374 130.498 324.654 131.151 324.072 131.899C323.435 132.718 323.068 133.513 322.298 134.283C321.783 134.798 321.042 135.066 320.479 135.573C320.113 135.902 319.472 136.105 319.189 136.459C318.355 137.502 316.453 137.798 315.457 138.636C314.475 139.463 312.412 139.051 311.207 139.051C308.036 139.051 304.031 139.707 301.153 138.268C300.077 137.73 299.119 137.185 297.939 137.185C296.799 137.185 295.659 137.185 294.519 137.185C293.122 137.185 292.86 137.842 292.86 139.154C292.86 139.889 294.365 141.25 294.933 141.585C295.517 141.928 296.324 142.515 296.799 142.99C297.184 143.374 297.955 143.553 298.25 143.923C298.993 144.851 301.769 143.91 302.558 143.612C305.031 142.677 307.736 141.93 310.378 141.734C311.396 141.659 313.092 141.769 314.006 141.285C314.812 140.858 315.339 139.736 315.872 139.051C317.186 137.362 318.609 135.649 319.811 133.914C320.929 132.299 322.828 131.344 324.061 129.837C324.954 128.746 325.641 127.897 326.283 126.612C327.254 124.672 327.716 122.312 328.103 120.186C328.655 117.149 329.495 114.268 329.094 111.11C328.733 108.273 328.932 105.325 328.932 102.46C328.932 101.421 329.579 100.759 330.073 99.8806C330.494 99.131 330.772 98.2682 331.213 97.5426C331.674 96.7828 331.815 95.9114 332.365 95.2046C333.141 94.2068 334.128 93.4399 335.198 92.7745C336.999 91.6538 338.339 89.7068 340.035 91.8877C340.315 92.2475 341.244 92.7378 341.359 93.143C341.548 93.804 341.578 94.3521 341.578 95.0549C341.578 96.5208 341.733 97.9008 341.06 99.2472C340.267 100.833 339.093 102.148 337.847 103.393C336.418 104.822 335.566 106.703 335.566 108.691C335.566 110.994 334.895 112.772 333.286 114.381C332.066 115.601 331.265 116.958 330.476 118.423C328.609 121.89 326.919 125.5 325.304 129.088C323.575 132.931 325.903 137.669 326.456 141.539C326.57 142.336 327.036 143.15 327.274 143.923C327.573 144.893 327.878 146.01 328.31 146.929C329.739 149.964 331.886 152.554 333.804 155.325C334.811 156.779 336.176 158.319 337.432 159.575C338.834 160.976 340.125 162.56 341.67 163.824C342.814 164.76 343.469 166.382 344.481 167.452C346.7 169.802 350.248 171.233 353.234 172.428C357.693 174.212 361.937 176.538 366.248 178.693C369.432 180.285 372.782 180.54 376.153 181.503C377.467 181.879 379.289 181.549 380.668 181.549C382.092 181.549 383.804 181.708 385.16 182.125C386.946 182.675 388.816 182.864 390.607 183.415C391.495 183.688 392.037 184.037 392.991 184.037C394.113 184.037 395.588 183.805 396.619 184.36C398.886 185.58 401.436 186.885 403.253 188.702C403.986 189.435 404.672 189.928 405.534 190.567C407.181 191.789 408.398 193.132 409.83 194.564C411.008 195.742 411.608 196.774 412.168 198.342C412.752 199.978 413.112 201.64 413.676 203.271C414.014 204.246 414.344 204.733 414.344 205.805C414.344 207.585 415.01 209.247 415.185 210.999C415.268 211.824 415.617 213.1 415.899 213.89C416.139 214.562 416.08 215.308 416.371 215.963C416.77 216.859 416.417 218.696 416.417 219.695" stroke="#8C7E6C" stroke-width="2" stroke-linecap="round"/>
<path d="M416.625 217.207C416.625 223.517 416.417 229.546 416.417 235.865C416.417 242.853 417.246 249.67 417.246 256.7C417.246 258.34 417.454 259.893 417.454 261.525C417.454 263.886 417.726 266.529 417.2 268.827C416.791 270.62 416.832 272.892 416.832 274.736C416.832 276.344 416.21 277.88 416.21 279.515C416.21 285.446 415.588 291.343 415.588 297.275C415.588 300.071 415.381 302.943 415.381 305.775C415.381 308.332 415.52 310.472 414.598 312.777C413.395 315.784 413.31 319.118 413.711 322.325C414.122 325.615 414.344 328.95 414.713 332.264C414.92 334.128 415.163 336.003 415.369 337.862C415.478 338.845 415.469 340.041 415.841 340.971C416.352 342.249 416.476 343.813 417.143 345.014C417.58 345.801 417.877 346.748 418.49 347.398C418.924 347.857 419.728 348.792 419.942 349.379C420.734 351.557 423.569 353.306 425.124 354.861C425.92 355.657 426.66 356.187 427.243 357.142C427.606 357.735 428.639 358.246 429.167 358.696C429.967 359.378 430.881 360.173 431.436 361.08C433.499 364.456 433.892 368.812 436.734 371.653C437.544 372.463 438.444 373.095 439.267 373.888C439.788 374.389 441.496 375.001 441.698 375.707C442.183 377.406 444.859 378.734 446.385 379.427C447.219 379.807 448.071 379.738 448.965 379.738C450.223 379.738 451.669 380.04 452.904 380.314C454.723 380.718 456.625 380.775 458.501 380.775C459.952 380.775 461.404 380.775 462.855 380.775C463.975 380.775 465.664 380.314 466.586 380.775" stroke="#8C7E6C" stroke-width="2" stroke-linecap="round"/>
<path d="M466.506 380.405C467.548 380.405 467.578 381.059 467.176 381.817C466.679 382.757 464.942 383.121 464.038 383.486C462.212 384.224 460.433 384.918 458.675 385.796C457.351 386.459 456.034 387.156 454.639 387.658C453.057 388.227 451.176 388.804 449.76 389.705C449.192 390.066 448.625 390.306 448.12 390.774C447.704 391.16 446.917 391.673 446.38 391.858C445.281 392.239 444.34 393.192 443.242 393.599C442.465 393.886 441.799 394.438 441.024 394.782C440.226 395.137 439.503 395.587 438.713 395.938C437.923 396.289 437.339 396.965 436.595 397.378C435.991 397.714 435.377 398.52 434.955 399.047C434.547 399.557 434.656 400.531 434.791 401.137C434.949 401.849 435.769 403.025 436.396 403.383C436.656 403.532 436.815 403.85 437.109 403.997C437.541 404.213 437.95 404.324 438.392 404.51C438.853 404.704 439.443 404.604 439.933 404.674C440.388 404.739 440.898 404.899 441.345 404.924C442.111 404.966 442.828 405.052 443.591 405.052C445.457 405.052 447.306 405.659 449.176 405.694C450.426 405.717 451.631 406.025 452.898 405.951C453.405 405.921 453.602 404.392 453.733 404.025C454.061 403.107 454.054 402.192 454.054 401.208C454.054 399.829 454.308 398.326 454.539 396.965C454.683 396.114 454.952 395.135 454.952 394.276C454.952 393.933 455.028 393.42 455.181 393.114C455.651 392.173 456.383 391.545 456.942 390.675C458.1 388.873 459.455 387.199 460.986 385.668C461.893 384.761 462.951 384.556 464.067 384.028C464.539 383.804 466.121 383.137 466.121 384.063C466.121 386.907 464.034 389.393 462.783 391.83C462.316 392.739 462.165 393.769 461.82 394.725C461.476 395.683 461.159 396.816 461.114 397.835C461.082 398.575 460.986 399.293 460.986 400.046C460.986 400.506 461.153 401.363 460.922 401.779C460.724 402.135 460.927 402.617 460.758 402.998C460.625 403.297 460.551 403.766 460.48 404.089C460.3 404.899 460.552 405.824 460.316 406.621C460.124 407.269 459.858 408.245 460.187 408.903C460.608 409.745 461.079 409.674 461.949 409.674C462.455 409.674 463.125 409.007 463.361 408.582C463.894 407.622 464.335 406.796 464.68 405.723C464.818 405.294 465.041 404.828 465.101 404.41C465.206 403.676 465.299 402.776 465.508 402.071C465.794 401.104 466.121 399.949 466.121 398.955C466.121 398.21 466.62 397.656 466.756 396.908C466.907 396.074 467.148 395.242 467.148 394.369C467.148 391.907 467.019 389.471 467.019 387.016C467.019 385.421 467.421 383.752 467.89 382.23C468.142 381.411 468.35 380.292 469.102 379.763C470.106 379.056 471.025 378.185 472.083 377.581C473.065 377.019 475.182 376.382 476.234 377.224C478.027 378.659 477.836 381.281 478.067 383.357C478.195 384.511 478.316 385.576 478.316 386.752C478.316 387.82 478.59 389.298 478.288 390.318C477.6 392.638 477.851 395.104 477.553 397.485C477.501 397.9 477.689 398.505 477.517 398.89C477.25 399.492 477.008 400.094 476.712 400.688C476.263 401.584 475.955 402.515 475.521 403.383C475.216 403.992 474.575 404.969 473.952 405.28C473.504 405.504 472.213 405.661 471.898 405.109C471.33 404.116 471.593 402.708 472.09 401.715C472.862 400.171 473.916 398.499 474.365 396.836C475.222 393.665 476.776 390.535 476.776 387.216C476.776 386.462 477.133 385.569 477.296 384.834C477.547 383.707 477.714 382.489 478.059 381.368C478.389 380.297 478.763 379.445 479.536 378.672C480.051 378.156 480.392 377.297 481.012 376.91C481.216 376.782 481.749 376.307 481.911 376.104C482.111 375.854 482.412 375.746 482.681 375.626C483.245 375.376 484.346 375.198 484.92 375.527C485.619 375.926 485.697 377.843 485.755 378.479C485.896 380.031 486.147 381.485 486.147 383.072C486.147 384.568 486.492 386.56 486.047 388.007C485.66 389.264 485.97 390.84 485.313 392.022C484.842 392.869 484.774 394.14 484.478 395.103C484.129 396.238 483.955 397.568 483.451 398.634C482.906 399.788 482.295 400.868 481.682 401.971C481.388 402.502 480.948 402.984 480.563 403.455C480.265 403.819 479.827 404.431 479.415 404.667C478.991 404.909 478.664 405.442 478.188 405.694C477.705 405.949 477.285 406.347 476.776 406.529C475.785 406.882 475.011 407.696 474.08 408.162C472.767 408.818 471.359 409.986 469.908 410.308C467.377 410.871 464.598 410.991 462.113 411.756C461.321 412 460.402 411.938 459.574 411.984C458.722 412.032 457.831 412.113 456.942 412.113C455.246 412.113 453.547 412.002 452 411.314C451.377 411.037 450.49 410.519 449.818 410.444C448.997 410.353 448.3 409.484 447.571 409.16C445.4 408.195 443.322 406.705 441.06 405.922C440.625 405.772 440.142 405.596 439.74 405.373C439.155 405.048 438.708 405.075 438.036 404.952C437.014 404.767 435.867 405.012 434.862 404.788C434.56 404.721 434.173 404.632 433.899 404.51C433.632 404.391 433.303 404.102 433.058 404.032C432.274 403.808 431.85 403.222 431.204 402.841C430.907 402.667 430.658 401.939 430.498 401.65C430.207 401.128 430.027 400.505 429.82 399.946C429.468 398.995 428.79 398.209 428.379 397.286C427.919 396.251 427.027 395.484 426.261 394.718C425.679 394.136 424.577 393.675 424.172 392.985C423.338 391.568 421.644 390.964 420.734 389.64C420.269 388.965 419.427 388.741 418.851 388.207C418.504 387.884 417.749 387.193 417.275 387.087C415.906 386.783 414.861 386.134 413.617 385.511C412.851 385.128 412.062 384.948 411.306 384.613C410.488 384.249 409.857 383.736 409.059 383.293C408.386 382.919 407.485 382.604 406.877 382.131C406.112 381.535 405.05 380.711 404.145 380.376C403.295 380.061 402.534 379.247 401.742 378.8C400.988 378.374 400.284 377.74 399.595 377.224C399.41 377.085 399.078 377.075 398.854 376.91C398.599 376.723 398.309 376.554 398.019 376.425C397.643 376.258 397.332 375.982 396.985 375.783C396.245 375.36 395.537 374.906 394.938 374.307C394.03 373.399 392.898 372.726 392.178 371.647C390.88 369.699 389.376 367.975 387.749 366.348C386.94 365.539 386.261 364.577 385.496 363.716C384.855 362.995 384.403 361.954 383.677 361.349C383.061 360.835 382.618 360.238 382.137 359.608C381.306 358.522 380.394 357.648 380.011 356.271C379.649 354.966 379.117 353.693 378.771 352.355C378.293 350.514 377.958 348.634 377.544 346.771C377.238 345.393 377.068 344.083 377.03 342.663C376.992 341.203 376.225 339.761 375.718 338.427C375.127 336.872 374.265 335.501 373.793 333.905C373.468 332.812 373.43 331.63 373.186 330.532C372.985 329.625 372.794 328.505 372.794 327.579C372.794 327.266 372.554 327.025 372.537 326.745C372.51 326.288 372.537 325.82 372.537 325.361C372.537 324.154 372.537 322.946 372.537 321.739C372.537 320.953 372.576 320.211 372.673 319.435C372.721 319.047 372.694 318.463 372.801 318.087C373.179 316.764 372.922 314.949 372.922 313.523" stroke="#8C7E6C" stroke-width="2" stroke-linecap="round"/>
<path d="M372.856 314.468C372.856 311.616 372.856 308.765 372.856 305.914C372.856 305.177 372.596 304.531 372.596 303.84C372.596 303.306 372.454 301.821 372.208 301.377C371.885 300.797 371.819 299.08 371.819 298.396C371.819 297.662 371.819 296.927 371.819 296.193C371.819 293.289 371.815 290.258 370.983 287.451C370.45 285.649 370.782 283.432 370.782 281.547C370.782 280.18 370.759 278.218 371.43 277.01C372.198 275.628 371.901 273.557 372.467 272.085C372.871 271.034 372.64 269.705 372.985 268.6C373.224 267.837 373.374 266.736 373.374 265.936C373.374 264.285 373.702 262.438 373.907 260.795C374.341 257.322 374.507 251.734 377.32 249.202C378.975 247.712 378.558 251.055 378.558 251.881C378.558 253.431 378.558 254.982 378.558 256.532C378.558 259.271 378.04 261.899 378.04 264.64C378.04 267.837 378.04 271.034 378.04 274.231C378.04 275.983 377.646 277.683 377.277 279.343C376.984 280.662 376.711 282.4 376.168 283.621C375.378 285.399 374.965 287.268 374.267 289.064C373.692 290.543 372.932 292.344 372.078 293.673C371.447 294.655 371.56 295.397 371.56 296.596C371.56 300.217 371 303.154 369.543 306.432C368.923 307.829 368.728 309.484 368.06 310.954C367.369 312.473 366.792 314.112 366.116 315.634C365.657 316.666 364.623 318.33 364.561 319.393C364.529 319.93 364.187 320.842 363.913 321.337C363.396 322.266 363.697 322.989 363.466 324.059C362.98 326.308 363.228 328.693 362.732 330.928C362.421 332.327 361.767 334.038 361.191 335.335C360.627 336.604 360.047 338.244 359.895 339.612C359.724 341.147 358.942 342.763 358.858 344.278C358.76 346.034 358.339 347.766 358.339 349.592C358.339 350.323 358.299 351.066 358.339 351.795C358.382 352.563 359.117 353.235 359.117 353.999C359.117 355.188 360.268 356.268 360.413 357.498C360.606 359.135 361.523 360.813 362.098 362.423C362.574 363.756 363.24 365.698 364.1 366.773C365.103 368.027 365.299 369.594 365.914 370.978C366.437 372.154 367.165 373.558 367.426 374.736C367.662 375.799 369.103 378.815 370.134 379.273C371.407 379.839 372.367 381.03 373.633 381.663C375 382.346 376.186 383.399 377.522 384.14C378.428 384.644 378.763 385.711 379.653 386.272C380.33 386.698 381.179 386.461 381.928 386.588C382.916 386.756 384.109 387.026 385.025 387.438C387.431 388.521 389.999 389.352 392.499 390.218C393.582 390.593 394.874 391.715 396.056 391.715C397.402 391.715 399.536 392.482 400.722 393.141C401.788 393.734 403.789 394.173 404.999 394.307C405.753 394.391 406.465 394.907 407.202 395.071C408.377 395.332 409.468 395.31 410.702 395.344C411.497 395.366 413.342 395.337 414.072 395.661C414.768 395.971 415.627 395.632 416.275 395.992C416.694 396.225 418.003 396.355 418.478 396.381C419.211 396.422 419.702 396.64 420.422 396.64C421.446 396.64 423.47 396.487 424.239 397.101C424.741 397.503 425.472 397.442 425.996 397.937C426.513 398.425 426.87 399.051 427.421 399.492C428.318 400.21 429.059 401.327 429.567 402.343C430.036 403.28 431.271 403.399 432.231 403.639C433.584 403.978 434.77 404.551 436.048 404.993C438.939 405.994 441.743 406.289 444.53 407.528C445.981 408.173 446.901 408.732 448.029 409.861C448.538 410.369 449.109 411.209 449.714 411.546C451.053 412.289 452.854 412.273 454.251 412.971C457 414.346 461.496 416.637 462.805 419.581C463.419 420.964 464.588 422.419 465.397 423.657C466.954 426.038 468.22 428.54 469.804 430.915C471.792 433.897 472.396 438.233 472.396 441.745C472.396 442.836 472.97 446.082 472.338 446.871C471.58 447.82 471.896 449.484 471.359 450.558" stroke="#8C7E6C" stroke-width="2" stroke-linecap="round"/>
<path d="M471.619 449.521C471.619 452.019 470.45 452.996 468.638 454.446C467.065 455.704 466.232 457.68 464.879 459.112C463.384 460.695 462.633 462.683 461.135 464.182C459.83 465.486 458.485 466.918 457.16 468.243C456.042 469.36 454.146 469.741 453.214 470.907C452.918 471.277 451.187 472.333 450.751 472.333C450.005 472.333 449.27 473.285 448.548 473.369C447.893 473.447 447.073 474.198 446.474 474.464C445.763 474.78 444.755 475.184 444.012 475.184C442.067 475.184 440.123 475.184 438.179 475.184" stroke="#8C7E6C" stroke-width="2" stroke-linecap="round"/>
<path d="M439.476 475.962C436.863 475.962 434.611 474.851 432.016 474.666C428.734 474.431 425.664 473.888 422.309 473.888C418.409 473.888 414.446 473.629 410.501 473.629C407.013 473.629 403.282 473.258 399.815 473.643C396.409 474.022 393.18 474.406 389.705 474.406C388.389 474.406 386.882 474.041 385.543 473.874C383.7 473.643 381.332 473.269 379.581 472.722C377.752 472.15 375.759 472.354 373.893 472.088C372.676 471.914 371.37 471.555 370.149 471.555C367.843 471.555 365.661 471.296 363.322 471.296C360.741 471.296 358.31 470.777 355.748 470.777C352.746 470.777 349.225 470.877 346.358 470.057C345.357 469.771 344.099 469.74 343.046 469.74C340.693 469.74 338.357 469.341 336.047 468.905C332.621 468.259 329.48 466.197 326.081 465.579C323.176 465.05 320.359 464.383 317.383 464.052C315.963 463.894 314.757 463.814 313.365 463.505C312.258 463.259 311.019 462.531 309.923 462.166C308.579 461.718 307.262 460.96 305.977 460.351C304.441 459.623 302.81 458.162 301.196 457.759C298.637 457.119 296.262 456.552 293.938 455.224C293.06 454.722 292.134 454.149 291.331 453.525C290.077 452.549 288.681 451.826 287.313 450.947C285.554 449.816 283.571 448.186 281.481 447.721C279.416 447.262 276.583 445.75 275.015 444.467C273.228 443.004 271.155 441.754 269.168 440.65C265.695 438.721 261.34 437.079 257.374 437.079C255.801 437.079 253.617 437.465 252.578 438.764C252.245 439.18 251.096 439.78 250.619 439.916C249.368 440.273 248.119 441.109 246.818 441.543C245.742 441.902 244.771 442.397 243.707 442.724C242.558 443.078 241.297 443.092 240.135 443.358C237.919 443.864 235.577 445.245 233.396 445.374C232.227 445.443 230.936 446.312 229.767 446.612C228.514 446.934 227.3 447.392 226.138 447.908C223.67 449.005 221.226 450.236 218.75 451.336C217.653 451.823 216.575 452.611 215.38 452.877C214.644 453.04 213.476 453.416 212.788 453.798C210.858 454.871 207.905 454.025 205.918 454.907C205.175 455.238 203.375 455.437 202.549 455.483C201.103 455.564 199.856 455.87 198.459 456.319C196.022 457.102 193.716 457.842 191.273 458.594C188.696 459.387 186.226 460.668 183.496 460.668C182.672 460.668 180.846 460.853 180.529 459.746C180.168 458.481 180.753 457.909 181.437 457.039C183.221 454.768 186.886 454.257 189.213 452.776C191.902 451.065 194.769 449.393 197.623 447.966C200.001 446.777 201.801 444.781 204.104 443.502C205.828 442.544 207.311 441.365 209.029 440.506C209.829 440.106 210.721 439.769 211.42 439.21C211.742 438.952 213.394 438.945 213.825 438.908C214.996 438.806 215.948 438.377 217.065 438.058C220.612 437.044 224.005 435.158 227.434 433.824C229.517 433.014 231.768 432.879 233.914 432.283C235.565 431.825 237.499 431.117 239.228 431.117C241.43 431.117 243.785 429.682 245.954 429.288C247.729 428.965 250.132 428.213 251.671 427.358C253.73 426.214 256.36 425.958 258.598 425.212C260.823 424.471 263.158 424.472 265.337 423.801C268.007 422.98 270.518 422.34 273.316 422.03C277.311 421.586 281.546 421.776 285.499 420.878C287.642 420.39 289.836 420.187 291.979 419.711C294.289 419.198 296.586 417.987 298.978 417.897C302.819 417.752 306.525 416.341 310.384 416.341C314.359 416.341 318.878 416.074 322.884 415.362C324.747 415.031 326.91 415.144 328.789 415.045C329.825 414.991 330.91 414.308 331.957 414.267C334.487 414.17 337.022 413.49 339.546 413.49C342.674 413.49 346.163 413.273 349.267 412.842C352.346 412.414 355.998 413.004 358.858 411.733C361.27 410.661 364.232 411.138 366.635 410.178C367.651 409.771 369.492 410.12 370.581 410.12C372.37 410.12 374.742 410.53 376.471 409.99C378.359 409.4 380.535 410.262 382.447 409.731C383.796 409.356 385.342 409.405 386.724 409.097C388.861 408.623 391.479 408.242 393.464 407.139C394.265 406.694 396.158 406.232 397.093 406.232C398.403 406.232 399.673 405.454 400.967 405.454C403.342 405.454 405.671 404.936 408.11 404.936C409.147 404.936 410.184 404.936 411.221 404.936C412.94 404.936 414.817 403.742 416.664 403.639C418.919 403.514 421.002 402.603 423.289 402.603C425.358 402.603 427.427 402.603 429.496 402.603C430.546 402.603 431.129 402.954 432.088 403.38C432.697 403.651 434.019 403.873 434.291 404.417" stroke="#8C7E6C" stroke-width="2" stroke-linecap="round"/>
<path d="M430.921 403.639C429.637 402.356 428.321 400.886 426.903 399.751C424.902 398.151 422.677 397.363 420.293 396.511C416.219 395.056 411.856 395.193 407.648 393.991C405.13 393.271 402.593 393.312 400.073 392.752C397.924 392.275 395.879 391.715 393.723 391.715C392.038 391.715 390.353 391.715 388.668 391.715C386.503 391.715 385.318 391.496 383.483 390.477C382.047 389.679 380.651 388.864 378.947 388.864C378.215 388.864 377.002 388.634 376.355 388.993C375.502 389.467 374.789 390.226 374.022 390.822C372.377 392.102 370.385 393.589 368.967 395.085C368.573 395.501 368.007 396.14 367.729 396.64C367.387 397.256 367.18 396.974 366.634 397.216C365.717 397.624 364.681 397.689 363.783 398.138C360.132 399.964 356.37 402.301 353.817 405.584C353.003 406.63 351.773 407.599 350.764 408.507C349.505 409.641 347.921 410.98 346.415 411.733C344.554 412.663 342.427 413.113 340.583 414.138C338.102 415.516 335.336 415.213 332.676 415.952C331.591 416.254 329.981 416.341 328.846 416.341C328.045 416.341 327.172 416.817 326.455 416.86C324.485 416.975 322.667 418.089 320.81 418.732C318.574 419.506 316.559 420.872 314.272 421.526C311.617 422.284 309.128 423.859 306.365 423.859C303.928 423.859 301.234 423.073 298.92 422.361C297.124 421.808 294.578 421.785 292.699 421.785C290.651 421.785 288.695 421.526 286.665 421.526C284.801 421.526 282.037 422.654 280.703 423.988C280.001 424.69 278.7 425.521 277.779 425.875C277.049 426.156 276.602 426.941 275.85 426.969C274.593 427.016 272.613 428.223 271.5 428.841C270.623 429.328 269.792 429.906 268.908 430.397C265.393 432.35 262.655 435.682 258.928 437.338C257.349 438.04 255.618 438.352 254.133 439.095C252.803 439.76 250.714 440.449 249.208 440.449" stroke="#8C7E6C" stroke-width="2" stroke-linecap="round"/>
</g>
<g opacity="0.5" filter="url(#filter0_g_109_479)">
<rect x="45.1802" y="25.6808" width="449.64" height="444.322" stroke="#8C7E6C" stroke-width="1.5"/>
</g>
<g opacity="0.5" filter="url(#filter1_g_109_479)">
<path d="M270 1.75C418.156 1.75 538.25 120.863 538.25 267.784C538.25 414.705 418.156 533.818 270 533.818C121.844 533.818 1.75 414.705 1.75 267.784C1.75 120.863 121.844 1.75 270 1.75Z" stroke="#8C7E6C" stroke-width="1.5"/>
</g>
<g opacity="0.6">
<path d="M104.58 443.729C104.457 443.184 104.371 442.423 104.371 441.873C104.371 441.451 103.857 440.602 104.217 440.158C104.874 439.349 105.067 437.789 105.516 436.793C106.036 435.64 105.81 434.123 106.453 432.983C106.693 432.556 106.92 431.617 106.948 431.126C106.985 430.474 107.518 429.863 107.741 429.259C108.192 428.036 109.07 426.695 109.723 425.568C110.44 424.332 111.72 423.53 112.587 422.431C113.449 421.338 114.651 420.261 115.869 419.555C117.059 418.865 117.843 417.302 118.996 416.472C120.169 415.627 121.151 414.4 122.411 413.779C123.731 413.129 124.734 412.069 125.979 411.348C126.63 410.97 127.159 410.331 127.862 410.024C128.269 409.845 129.278 409.476 129.547 409.144C129.925 408.679 131.126 408.121 131.684 407.918C132.446 407.639 133.124 407.094 133.82 406.702C134.91 406.088 136.019 405.11 137.278 404.932C138.84 404.712 140.085 403.771 141.738 403.771C143.145 403.771 144.369 402.86 145.604 402.251C148.024 401.059 150.437 399.713 152.84 398.397C155.226 397.091 157.833 396.286 160.273 395.217C161.418 394.715 163.132 394.196 164.392 394.196C165.252 394.196 165.733 393.793 166.518 393.621C167.034 393.508 167.856 393.414 168.247 393.067C168.706 392.66 169.54 392.639 170.086 392.34C170.805 391.946 171.654 391.929 172.41 391.7C173.326 391.422 174.301 391.421 175.229 391.255C175.987 391.119 176.549 390.584 177.223 390.288C178.517 389.721 179.609 388.63 180.978 388.139C182.242 387.686 183.565 387.212 184.767 386.674C185.259 386.453 186.299 386.052 186.837 385.99C187.521 385.91 188.11 385.235 188.731 385.013C189.632 384.69 190.48 384.25 191.396 383.992C192.423 383.703 193.526 382.782 194.568 382.668C195.71 382.543 197.3 381.463 198.335 380.953C199.914 380.175 201.16 379.542 202.938 379.542C204.361 379.542 206.441 379.912 207.806 379.498C209.448 379 211.126 378.451 212.806 377.978C215.992 377.081 219.141 377.001 222.519 377.001C223.858 377.001 225.017 377.714 226.286 377.783C226.612 377.801 227.883 378.042 228.07 378.272C228.13 378.346 229.4 378.897 229.568 378.945C230.023 379.073 230.518 379.364 230.889 379.694C231.373 380.123 231.994 380.127 232.53 380.421C233.621 381.018 234.998 381.126 235.702 382.375C236.255 383.356 236.563 384.569 237.299 385.501C238.125 386.548 239.465 387.341 240.36 388.334C241.256 389.327 242.149 390.38 243.092 391.309C243.347 391.56 243.565 391.884 243.83 392.145C244.073 392.385 244.553 392.523 244.722 392.731C244.957 393.021 245.936 393.209 246.308 393.371C247.303 393.808 248.118 394.322 249.083 394.826C250.003 395.306 250.607 396.346 251.759 396.346C252.792 396.346 254.249 397.293 255.327 397.529C255.774 397.627 256.283 398.203 256.616 398.495C257.092 398.912 258.645 399.124 259.292 399.266C260.611 399.555 261.767 400.155 263.058 400.438C263.724 400.584 264.246 400.802 264.942 400.84C265.567 400.874 266.13 401.426 266.726 401.426C271.742 401.426 276.427 402.989 281.395 402.989" stroke="#8C7E6C" stroke-linecap="round"/>
<path d="M280.404 402.989C282.452 402.989 284.501 402.989 286.549 402.989C287.329 402.989 287.956 402.607 288.642 402.414C289.432 402.191 290.174 402.208 291.009 402.208C292.959 402.208 294.908 402.208 296.857 402.208C298.464 402.208 300.021 402.403 301.615 402.403C303.256 402.403 304.726 402.399 306.064 403.478C306.945 404.188 308.968 403.771 310.095 403.771C310.969 403.771 311.842 403.771 312.716 403.771C314.481 403.771 316.334 403.576 318.157 403.576C320.875 403.576 323.6 403.771 326.35 403.771C329.17 403.771 331.875 404.357 334.709 404.357C339.923 404.357 345.153 404.344 350.337 404.162C351.265 404.129 352.121 403.771 353.057 403.771C353.85 403.771 354.643 403.771 355.436 403.771C357.294 403.771 359.317 403.966 361.24 403.966C362.444 403.966 363.648 403.966 364.852 403.966C365.993 403.966 367.094 404.357 368.222 404.357C370.425 404.357 372.742 404.553 375.006 404.553C379.804 404.553 384.603 404.162 389.433 404.162C390.586 404.162 391.739 404.162 392.891 404.162C393.745 404.162 394.49 404.72 395.226 404.748C397.817 404.846 400.43 404.748 403.023 404.748C405.195 404.748 407.348 405.139 409.455 405.139C411.129 405.139 413.33 405.225 414.906 405.823C415.963 406.223 417.114 406.279 418.133 406.897C419.538 407.749 421.111 408.333 422.494 409.242C424.069 410.277 425.691 411.231 427.395 411.978C428.29 412.37 429.1 413.374 429.917 413.932C430.598 414.396 431.892 415.363 432.296 416.081C432.82 417.011 433.646 417.651 434.036 418.708C434.215 419.194 434.733 419.541 434.818 420.087C434.957 420.98 435.195 421.671 435.534 422.529C436.037 423.804 436.752 424.964 437.164 426.285C437.444 427.183 438.054 428.247 438.188 429.173C438.479 431.18 438.595 433.132 438.595 435.186C438.595 436.282 438.676 437.313 438.298 438.356C437.939 439.348 437.306 440.266 437.01 441.287C436.509 443.015 435.514 444.394 434.234 445.586C432.712 447.003 430.312 448.575 428.188 448.897C427.592 448.987 426.934 448.786 426.349 448.951C425.757 449.118 425.098 449.298 424.477 449.298C423.226 449.298 421.804 449.111 420.6 449.45C418.486 450.046 415.824 449.689 413.618 449.689C411.051 449.689 408.508 448.908 405.931 448.908C403.781 448.908 401.701 448.712 399.543 448.712C397.648 448.712 395.834 448.321 393.993 448.321C392.834 448.321 391.664 447.931 390.468 447.931C389.198 447.931 387.928 447.931 386.658 447.931C384.46 447.931 382.376 447.54 380.204 447.54C377.957 447.54 375.815 447.85 373.618 447.931C371.055 448.024 368.633 448.712 366.041 448.712C361.631 448.712 357.35 449.298 352.947 449.298C351.488 449.298 350.03 449.103 348.553 449.103C347.54 449.103 346.504 449.111 345.524 448.897C344.571 448.688 343.829 448.517 342.804 448.517C341.36 448.517 339.997 448.126 338.531 448.126C334.065 448.126 329.843 446.367 325.403 446.367C318.545 446.367 311.868 444.854 305.139 443.675C302.934 443.289 300.623 443.371 298.542 442.46C296.856 441.721 295.005 441.261 293.289 440.549C292.015 440.02 290.584 439.802 289.324 439.181C288.734 438.89 287.76 438.578 287.342 438.063C287.123 437.794 286.081 437.965 285.756 437.965C284.974 437.965 284.321 437.542 283.575 437.379C281.997 437.034 280.364 436.782 278.818 436.359C277.157 435.904 275.753 434.909 274.06 434.492C272.599 434.132 271.328 433.42 269.908 432.983C269.045 432.717 268.134 432.347 267.419 431.8C266.477 431.077 265.389 430.598 264.391 429.954C263.482 429.369 262.543 428.631 261.571 428.152C260.676 427.711 259.932 426.701 258.994 426.437C258.195 426.212 256.798 425.285 256.12 424.765C254.415 423.458 252.641 422.243 251.065 420.77C250.26 420.019 249.414 419.07 248.389 418.621C247.678 418.31 246.557 417.449 245.801 417.449C244.86 417.449 243.87 416.785 242.981 416.515C241.864 416.176 240.776 415.69 239.578 415.69C237.997 415.69 236.714 415.381 235.25 414.865C234 414.425 232.661 414.039 231.44 413.497C229.588 412.676 227.355 412.65 225.592 411.685C224.752 411.225 223.433 411.358 222.519 410.957C221.271 410.41 220.246 410.359 218.951 410.067C217.912 409.833 216.142 409.792 215.283 409.134C214.37 408.433 213.199 408.56 212.112 407.983C210.846 407.311 209.259 407.331 208.004 406.506C206.867 405.759 205.344 404.938 204.039 404.509C202.045 403.854 200.332 402.453 198.433 401.622C197.524 401.223 196.664 400.549 195.757 400.102C195.231 399.843 193.791 399.505 193.577 399.081" stroke="#8C7E6C" stroke-linecap="round"/>
<path d="M193.577 399.081C192.898 399.081 192.201 398.639 191.495 398.484C190.801 398.332 190.067 398.043 189.414 397.757C188.083 397.174 186.758 396.644 185.449 395.998C184.103 395.335 181.853 394.045 180.295 394.001C179.103 393.967 177.856 393.715 176.727 393.317C176.284 393.161 175.833 393.008 175.383 392.872C175.12 392.792 174.603 392.951 174.392 392.785C173.727 392.261 172.452 392.36 171.584 392.253C170.527 392.123 169.528 392.047 168.445 392.047C166.834 392.047 165.317 391.461 163.687 391.461C160.89 391.461 158.164 391.07 155.317 391.07C152.935 391.07 150.034 390.595 148.82 388.335C148.185 387.153 149.103 386.185 150.362 386.185C150.898 386.185 151.77 386.023 152.245 386.283C152.68 386.521 153.637 386.91 154.128 386.967C154.238 386.98 154.644 387.218 154.602 387.26C154.324 387.534 153.498 387.019 153.236 386.88C152.495 386.487 151.704 386.16 150.956 385.751C149.573 384.993 148.544 384.079 147.829 382.668C147.569 382.157 145.346 379.919 146.595 379.194C147.885 378.446 149.715 378.649 151.11 379.107C153.17 379.784 155.323 380 157.3 380.866C158.337 381.321 155.042 380.387 154.635 380.323C153.489 380.143 152.567 379.211 151.353 379.151C150.277 379.098 143.164 377.376 145.207 375.243C146.504 373.89 148.051 374.089 149.767 373.723C151.145 373.429 152.572 373.875 153.93 373.875C154.758 373.875 155.961 373.942 156.705 374.309C157.387 374.646 158.149 374.464 158.798 374.754C159.356 375.005 160.251 375.243 160.868 375.243C161.927 375.243 164.987 375.862 164.04 375.395C162.902 374.834 160.936 374.335 159.679 374.266C158.014 374.175 156.411 373.484 154.723 373.484C153.189 373.484 151.14 372.945 149.767 372.269C148.802 371.793 147.164 372.018 146.353 371.378C145.968 371.075 145.402 371.33 145.009 370.847C144.595 370.336 144.415 370.29 144.415 369.576C144.415 368.324 144.799 367.316 146 366.689C147.039 366.147 147.772 365.121 148.776 364.54C150.199 363.714 151.575 362.899 153.181 362.39C157.148 361.133 161.856 361.761 166.022 361.761C167.546 361.761 169.041 362.462 170.582 362.542C172.189 362.626 174.266 363.206 175.736 363.91C177.42 364.716 179.7 365.429 181.088 366.645C181.583 367.079 182.494 366.974 182.971 367.34C183.714 367.91 184.782 368.09 185.603 368.599C186.359 369.068 186.742 369.941 187.641 370.163C188.641 370.409 189.882 370.901 190.802 371.378C192.071 372.037 193.269 372.865 194.48 373.528C195.173 373.908 196.24 374.85 196.793 375.395C197.626 376.216 198.887 376.701 199.92 377.154C200.708 377.499 202.942 377.285 203.687 376.958C204.193 376.737 204.94 376.722 205.361 376.307C205.766 375.907 205.98 375.3 206.308 374.896C206.601 374.534 206.563 373.67 206.671 373.191C206.805 372.6 206.962 371.887 207.211 371.335C207.442 370.822 207.255 369.833 207.255 369.283C207.255 368.633 207.419 368.03 207.453 367.427C207.526 366.145 208.18 364.96 208.246 363.715C208.337 362.008 209.436 360.307 209.436 358.634C209.436 357.342 210.104 355.708 210.669 354.531C210.997 353.848 211.306 353.168 211.616 352.479C211.897 351.858 212.529 351.371 212.762 350.775C213.318 349.35 214.704 348.319 215.339 346.91C215.918 345.626 217.133 344.523 217.806 343.198C219.322 340.208 220.207 336.888 221.682 333.819C223.075 330.92 223.222 327.571 224.546 324.635C225.862 321.715 225.493 318.652 225.493 315.452C225.493 313.542 225.295 311.699 225.295 309.828C225.295 309.113 224.555 308.426 224.303 307.744C223.991 306.897 223.853 305.988 223.554 305.139C222.653 302.572 222.089 300.166 220.889 297.67C219.991 295.8 220.115 293.43 219.193 291.613C218.629 290.501 217.954 289.447 217.563 288.291" stroke="#8C7E6C" stroke-linecap="round"/>
<path d="M220.141 293.958C220.141 292.464 219.643 291.521 218.995 290.245C218.617 289.5 218.328 288.996 218.147 288.194C218.003 287.554 218.075 286.739 217.806 286.142C217.158 284.706 217.375 282.995 216.925 281.496C216.436 279.869 215.837 278.281 215.372 276.676C215.174 275.993 214.969 275.182 214.744 274.462C214.554 273.853 214.592 272.897 214.293 272.367C213.887 271.647 214.134 270.674 213.753 269.924C213.455 269.337 213.004 268.437 213.004 267.775C213.004 266.313 213.004 264.851 213.004 263.389C213.004 262.33 213.361 260.555 212.96 259.568C212.609 258.703 212.657 257.638 212.399 256.746C212.213 256.104 211.815 255.297 211.815 254.575C211.815 252.383 210.824 250.238 210.824 248.051C210.824 246.386 210.427 244.757 210.427 243.057C210.427 242.373 210.427 241.689 210.427 241.005C210.427 240.372 211.093 239.473 210.725 240.126C210.131 241.18 210.296 243.52 210.229 244.718C210.189 245.431 210.031 246.058 210.031 246.77C210.031 247.357 209.925 248.469 209.678 249.017C209.184 250.112 209.04 251.832 209.04 253.022C209.04 254.28 208.719 255.862 208.434 257.126C208.158 258.348 207.979 259.618 207.41 260.74C206.744 262.052 206.32 263.518 206.264 264.996C206.222 266.121 206.412 267.053 205.857 268.057C205.641 268.447 205.399 268.841 205.174 269.24C204.979 269.587 205.146 269.99 205.031 270.358C204.615 271.689 204.877 273.411 204.877 274.809C204.877 275.866 204.48 276.866 204.48 277.935C204.48 279.282 204.188 280.647 203.896 281.941C203.417 284.069 203.384 286.315 202.894 288.487C202.678 289.447 202.549 290.523 202.145 291.418C201.677 292.456 201.938 293.812 201.661 294.935C201.289 296.44 201.571 297.991 201.198 299.462C200.806 301.009 201.069 302.656 200.559 304.162C200.23 305.136 199.917 306.161 199.734 307.158C199.58 307.989 199.123 308.681 198.941 309.492C198.544 311.251 198.602 313.299 197.839 314.952C197.405 315.895 197.211 317.013 196.793 317.992C196.397 318.918 196.011 319.915 195.758 320.912C195.495 321.947 195.151 322.999 194.811 324.006C194.456 325.054 194.357 326.592 193.665 327.468C193.024 328.282 193.091 329.129 192.938 330.106C192.664 331.867 192.575 333.75 191.793 335.382C191.379 336.246 191.181 337.171 190.703 338.02C190.265 338.797 189.7 339.487 189.26 340.267C188.341 341.897 187.544 343.812 186.342 345.26C185.307 346.507 184.683 348.125 183.864 349.537C183.538 350.098 182.753 350.713 182.278 351.209C182.04 351.457 181.355 352.711 181.088 352.186" stroke="#8C7E6C" stroke-linecap="round"/>
<path d="M182.674 350.818C180.909 350.818 179.021 353.156 178.115 354.379C177.438 355.292 176.506 356.217 175.736 357.071C175.046 357.836 174.611 358.766 173.853 359.514C172.432 360.913 171.248 362.558 169.833 363.953C168.244 365.519 166.36 366.899 164.734 368.502C163.079 370.133 161.221 371.574 159.58 373.191C158.093 374.657 157.296 376.64 155.912 378.174C154.908 379.287 154.245 380.714 153.181 381.843C152.184 382.901 151.694 384.286 150.67 385.295C149.155 386.789 147.865 388.562 146.397 390.093C145.02 391.531 143.498 392.916 142.19 394.348C141.183 395.452 139.234 396.438 138.159 395.076C137.481 394.216 137.08 393.483 137.08 392.34C137.08 391.6 136.818 390.821 136.089 390.44C135.464 390.114 134.729 389.152 134.107 389.116C133.568 389.085 132.258 388.388 131.816 388.139C131.117 387.745 130.347 387.185 129.944 386.489C129.544 385.8 128.549 385.779 127.873 385.588C126.132 385.098 125.173 384.007 124.349 382.473C123.91 381.656 122.89 381.201 122.565 380.367C122.241 379.536 121.218 378.447 120.516 377.881C119.402 376.982 118.758 376.834 117.356 376.622C116.125 376.435 114.737 376.611 113.49 376.611C112.42 376.611 111.562 376.285 110.561 375.981C109.644 375.703 108.792 375.706 107.94 375.286C106.397 374.526 103.316 374.953 101.893 375.731C100.305 376.601 98.9448 378.099 97.5872 379.303C96.2259 380.511 94.6577 381.877 94.6577 383.743C94.6577 384.045 94.7857 384.715 94.6137 384.969C94.5725 385.03 95.6231 384.852 95.7591 384.817C96.5046 384.626 97.2471 384.211 97.9176 383.84C99.6089 382.907 101.341 382.454 103.083 381.691C104.719 380.974 106.378 380.277 107.697 379.107C108.347 378.531 109.031 377.756 109.481 377.002C109.847 376.389 108.686 377.382 108.534 377.49C107.722 378.068 106.766 378.684 106.045 379.346C104.865 380.432 103.127 380.98 101.882 381.984C100.963 382.726 99.6502 383.321 98.6225 383.884C97.1181 384.708 95.8168 386.164 94.063 386.381C92.9738 386.515 91.0895 389.403 91.0895 390.386C91.0895 391.296 91.1746 392.303 90.7922 393.133C90.1431 394.54 90.2454 396.026 89.856 397.518C89.3107 399.608 89.8187 401.36 90.7922 403.087C91.2861 403.963 91.8494 404.715 92.5763 405.432C93.2343 406.08 93.772 406.863 94.5036 407.44C95.6325 408.33 98.4697 407.663 99.3053 406.604C99.9048 405.844 100.605 404.755 100.605 403.771C100.605 402.494 101.2 401.188 101.2 399.906C101.2 396.849 101.574 393.531 101.188 390.495C101.036 389.295 100.287 388.05 100.021 386.869C99.8549 386.132 99.6346 385.224 98.7216 385.024C97.7026 384.8 97.6313 386.457 97.6313 387.064C97.6313 388.038 97.0736 388.992 97.0366 389.941C96.988 391.186 96.4419 392.318 96.4419 393.61C96.4419 394.685 96.4419 395.76 96.4419 396.834C96.4419 397.81 96.321 398.869 96.7392 399.776C96.974 400.285 96.8879 400.932 97.1247 401.426C97.6299 402.481 98.4096 403.449 98.8647 404.509C99.7862 406.656 101.728 408.069 102.829 410.024C103.64 411.461 105.648 412.368 107.246 412.368C108.05 412.368 109.296 411.596 109.525 410.805C109.762 409.99 110.745 409.225 111.155 408.46C112.313 406.305 112.499 403.725 112.499 401.328C112.499 399.184 112.549 397.103 112.091 395.076C111.686 393.276 110.724 391.384 109.966 389.702C109.344 388.322 108.356 384.828 106.056 386.087C105.301 386.501 105.14 387.971 104.867 388.725C104.398 390.019 104.371 391.307 104.371 392.677C104.371 395.513 104.694 397.915 105.407 400.645C105.648 401.571 105.854 402.492 106.255 403.369C106.622 404.175 107.31 404.765 107.697 405.529C108.424 406.962 108.809 408.432 109.834 409.73C110.558 410.648 111.671 411.549 112.598 412.26C113.265 412.771 113.593 413.15 114.481 413.15C115.381 413.15 116.624 412.006 116.662 411.044C116.721 409.524 116.86 407.997 116.86 406.506C116.86 405.423 117.455 404.378 117.455 403.272C117.455 402.051 117.572 400.564 117.84 399.374C117.964 398.824 117.676 397.5 118.149 397.127C118.397 396.931 119.417 395.141 119.437 394.783C119.523 393.256 118.786 391.343 117.851 390.191C117.329 389.547 117.04 388.66 116.552 388.041C115.347 386.515 115.269 387.904 114.129 388.725C112.081 390.201 110.856 393.046 109.966 395.325C108.782 398.359 108.208 401.919 109.426 405.041C110.541 407.899 112.012 409.984 114.878 411.239C115.573 411.544 115.274 409.097 115.274 408.46C115.274 407.308 115.273 406.297 115.781 405.226C116.53 403.644 116.993 402.215 117.543 400.59C117.568 400.516 117.192 401.522 117.102 401.535C116.677 401.595 117.542 400.807 117.752 400.438C118.494 399.139 119.428 397.773 120.627 396.845C121.3 396.324 122.111 395.977 122.851 395.564C123.498 395.203 124.985 394.64 125.737 394.587C128.743 394.376 132.135 393.528 134.999 394.783C136.638 395.501 138.167 397.258 138.27 399.081C138.302 399.649 138.209 400.112 138.071 400.655C137.915 401.27 137.278 401.582 137.278 402.208C137.278 403.381 136.199 403.982 135.692 404.856C135.097 405.884 134.143 406.646 133.226 407.386C131.517 408.764 129.732 410.172 127.763 411.196C126.23 411.993 125.048 413.157 123.358 413.693C122.11 414.088 120.834 414.127 119.536 414.127C118.448 414.127 118.053 414.051 117.146 413.541C116.224 413.021 115.992 412.564 114.878 412.564" stroke="#8C7E6C" stroke-linecap="round"/>
<path d="M108.931 375.438C111.343 375.438 113.754 375.438 116.166 375.438C117.263 375.438 118.436 375.543 119.437 375.981C119.794 376.137 120.263 376.084 120.627 376.263C121.041 376.468 121.379 376.83 121.816 377.045C123.357 377.804 124.269 378.174 126.078 378.174C127.379 378.174 128.65 375.7 128.952 374.657C129.464 372.892 130.813 371.197 131.684 369.577C131.861 369.247 132.163 368.96 132.366 368.6C132.646 368.104 132.701 367.728 132.917 367.188C133.32 366.183 133.827 365.262 134.261 364.301C134.962 362.746 134.773 360.774 135.593 359.318C136.106 358.409 135.878 357.094 136.386 356.192C137.008 355.088 137.588 353.603 137.972 352.392C138.583 350.464 138.677 348.353 139.503 346.52C140.319 344.711 140.383 342.764 140.968 340.842C141.489 339.13 141.735 337.411 142.432 335.729C143.062 334.213 143.654 332.541 144.415 331.083C145.443 329.112 146.477 327.547 148.027 325.96C149.477 324.475 151.318 322.772 152.256 320.923C152.916 319.621 153.881 318.236 154.921 317.21C156.189 315.961 156.739 314.202 157.895 312.901C159.71 310.856 160.444 308.123 161.617 305.682C162.211 304.446 162.652 302.74 162.652 301.383" stroke="#8C7E6C" stroke-linecap="round"/>
<path d="M162.058 302.165C162.058 301.423 162.127 300.16 162.355 299.44C162.556 298.805 163.013 297.727 163.049 297.084C163.162 295.083 163.546 293.19 163.831 291.222C164.196 288.703 165.229 286.056 165.229 283.504C165.229 281.193 166.419 279.107 166.419 276.763C166.419 274.528 167.212 272.351 167.212 270.119C167.212 268.592 167.698 267.165 167.806 265.669C167.897 264.424 168.537 263.215 168.809 262.01C169.104 260.702 169.004 259.072 169.502 257.809C170.129 256.222 170.333 254.47 170.978 252.881C171.399 251.845 172.366 250.25 172.366 249.114C172.366 247.224 172.628 245.252 173.005 243.393C173.277 242.051 173.753 240.569 173.753 239.203C173.753 237.839 174.251 236.647 174.546 235.339C174.837 234.048 174.943 233.022 174.943 231.67C174.943 228.447 176.353 225.268 176.716 222.052C176.902 220.403 176.798 218.806 177.168 217.167C177.499 215.697 177.784 214.253 177.905 212.76C178.131 209.977 179.295 207.374 179.502 204.618C179.619 203.069 179.926 201.405 180.196 199.863C180.526 197.976 180.831 195.769 181.485 193.958C181.829 193.002 181.891 191.749 182.377 190.886C182.882 189.99 183.247 189.078 183.665 188.15C184.662 185.941 183.92 182.384 186.727 181.594C187.99 181.238 189.629 180.042 191 180.042" stroke="#8C7E6C" stroke-linecap="round"/>
<path d="M183.665 187.662C183.665 185.74 185.789 184.08 187.079 182.918C187.989 182.099 188.855 181.16 189.92 180.53C191.378 179.668 192.689 178.543 194.072 177.599C195.416 176.682 196.88 176.646 198.423 176.22C200.204 175.729 202.211 175.417 203.885 174.722C205.927 173.875 208.251 173.15 210.427 172.66C212.031 172.298 213.615 171.937 215.184 171.336C216.733 170.742 218.519 170.656 220.03 169.979C221.702 169.23 223.734 169.016 225.206 167.829C226.173 167.05 227.596 166.326 228.764 165.875C230.278 165.291 231.557 164.059 233.026 163.335C235.092 162.317 236.852 160.841 238.774 159.623C240.902 158.275 242.92 156.972 244.92 155.465C245.831 154.778 246.678 154.274 247.497 153.468C248.126 152.848 248.675 152.146 249.281 151.514C249.995 150.769 250.691 150.184 251.263 149.321C251.875 148.398 252.762 147.566 253.29 146.629C254.016 145.341 255.753 143.836 254.986 142.135C254.176 140.34 254.237 137.823 254.237 135.871C254.237 133.99 253.334 131.629 252.552 129.933C251.943 128.612 252.262 126.867 251.561 125.624C251.283 125.131 251.205 124.048 251.076 123.474C250.937 122.858 250.399 122.287 250.074 121.726C249.778 121.216 249.479 120.503 249.479 119.859C249.479 118.988 248.286 118.882 247.497 118.882C246.754 118.882 246.089 118.339 245.316 118.296C244.654 118.26 243.235 117.754 242.739 117.319C241.735 116.44 240.194 115.674 238.973 115.072C237.559 114.376 235.511 112.505 235.393 110.947C235.271 109.323 234.555 107.836 234.204 106.279C234.027 105.492 234.017 104.769 234.017 103.935C234.017 103.355 233.828 102.203 234.259 101.731C234.935 100.99 235.49 101.024 236.396 100.667C238.423 99.8679 240.534 99.9289 242.695 99.9289C243.927 99.9289 244.962 101.31 245.757 102.122C247.061 103.454 247.781 104.912 248.488 106.616C249.363 108.724 249.612 110.794 250.074 113.02C250.599 115.553 251.38 118.174 252.254 120.598C253.065 122.844 253.082 125.379 253.939 127.578C254.387 128.724 254.449 130.278 254.633 131.507C254.93 133.479 264.33 136.3 263.594 138.167M234.061 106.963C234.186 106.076 234.612 105.213 234.612 104.325C234.612 103.381 234.612 102.436 234.612 101.492C234.612 100.63 234.81 99.7614 234.81 98.9519" stroke="#8C7E6C" stroke-linecap="round"/>
<path d="M234.215 101.297C234.215 99.7871 237.154 99.9288 238.18 99.9288C239.265 99.9288 240.313 99.5949 241.351 99.538C244.084 99.3884 243.532 96.5297 243.532 94.4468C243.532 91.6933 243.095 89.2934 242.497 86.6418C242.15 85.1018 242.205 83.1458 243.224 81.8546C243.641 81.3259 243.787 80.7129 244.028 80.096C244.494 78.9013 245.379 77.9488 246.219 76.9697C248.109 74.7686 251.356 74.0359 253.4 71.9436C254.363 70.9573 255.346 69.71 256.527 68.9693C257.617 68.2856 258.791 67.6911 259.986 67.1022C261.992 66.1135 264.2 65.0662 266.329 64.3666C268.279 63.7258 269.931 62.1799 271.88 61.631C274.858 60.7922 278.072 60.3788 280.987 59.3731C283.721 58.4301 286.602 57.6409 289.523 57.7231C290.96 57.7636 292.9 59.3172 293.796 60.361C294.804 61.5351 295.559 62.6977 296.263 64.0844C296.99 65.5193 298.601 66.3308 299.831 67.341C303.408 70.2796 304.985 74.3773 304.985 78.9237C304.985 80.917 304.929 82.8728 304.787 84.8398C304.697 86.0793 304.192 87.3595 304.192 88.5958C304.192 89.4545 304.211 90.6249 305.293 90.9297C306.2 91.185 307.218 88.1449 307.463 87.608C308.165 86.0701 309.201 85.199 310.139 83.8629C310.804 82.9161 311.576 81.8459 312.32 80.9753C313.17 79.9803 312.905 78.1442 313.124 76.9588C313.513 74.8495 313.782 72.6642 314.104 70.5216C314.296 69.2424 314.302 68.0041 314.302 66.7114C314.302 66.0614 314.346 65.3946 314.291 64.7465C314.235 64.0892 313.792 63.5805 313.707 62.9554C313.534 61.6724 312.743 60.1475 312.32 58.8955C311.966 57.849 311.592 56.7645 311.13 55.7691C310.478 54.3626 310.192 52.4996 309.049 51.3727C308.118 50.4552 307.84 48.7609 307.066 47.6602C305.599 45.5705 303.591 43.8945 301.031 43.2637C300.039 43.0192 298.963 42.6711 298.047 42.2433C297.548 42.0103 296.867 41.9054 296.461 41.5052C295.929 40.9805 295.754 40.2715 295.073 39.8986C293.859 39.2336 292.764 38.6228 291.494 38.0749C290.526 37.6575 289.812 37.108 288.719 37.0002C287.767 36.9064 287.129 36.5696 286.34 36.1318C284.793 35.2739 283.653 34.1767 281.791 34.0801C281.163 34.0475 280.609 33.5563 280.007 33.4939C279.32 33.4226 278.689 33.3234 277.981 33.2985C276.897 33.2604 275.875 32.9077 274.765 32.9077C273.261 32.9077 271.811 33.2307 270.382 33.6893C268.382 34.3311 266.129 34.2953 264.192 35.1005C263.083 35.562 262.707 36.1893 261.527 36.2295C256.952 36.385 252.613 38.354 248.895 40.919C247.05 42.1925 245.203 43.1798 243.576 44.7835C242.208 46.1316 240.839 47.6907 239.766 49.2776C237.92 52.0067 236.492 55.1386 234.92 58.0162C234.658 58.4955 234.247 59.1376 234.215 59.6771C234.176 60.3218 232.92 61.3866 232.629 62.0653C231.848 63.8874 231.433 65.7052 230.845 67.5906C230.259 69.4688 229.412 71.1673 229.017 73.116C228.803 74.1694 228.883 75.2155 228.863 76.2858C228.835 77.7091 228.466 79.1133 228.466 80.5411C228.466 81.1476 228.366 81.8506 228.477 82.4517C228.7 83.6582 229.666 84.8359 230.162 85.9471C230.879 87.5532 232.339 88.9296 233.026 90.4521C233.409 91.3015 233.981 92.0345 234.369 92.8945C234.603 93.414 234.93 94.795 235.404 95.0873C236.579 95.8112 237.725 97.7794 239.27 97.7794C239.62 97.7794 239.94 97.9748 240.36 97.9748C240.643 97.9748 241.742 97.8109 240.911 97.7794C239.883 97.7405 238.858 97.584 237.783 97.584C235.672 97.584 234.617 95.3672 233.719 93.7738C232.653 91.8817 232.212 89.7347 231.043 87.8142" stroke="#8C7E6C" stroke-linecap="round"/>
<path d="M305.183 92.3085C306.463 91.1733 308.067 90.4162 309.148 89.0844C309.945 88.102 310.844 87.9399 311.923 87.467C313.234 86.8928 314.273 87.834 314.996 88.7045C316.156 90.1024 315.973 93.2634 315.249 94.8487C314.659 96.1416 314.156 97.7289 313.003 98.6589C311.456 99.9061 310.612 100.593 309.544 102.23C308.549 103.756 308.62 105.677 307.859 107.343C307.2 108.788 306.648 110.382 305.877 111.75C305.096 113.136 304.47 115.004 304.038 116.538C303.299 119.16 301.875 121.912 300.316 124.147C299.798 124.889 299.11 125.505 298.553 126.21C297.944 126.982 297.594 127.731 296.857 128.457C296.364 128.943 295.656 129.195 295.117 129.673C294.768 129.983 294.155 130.175 293.884 130.509C293.087 131.491 291.268 131.77 290.316 132.56C289.376 133.34 287.404 132.951 286.252 132.951C283.219 132.951 279.39 133.569 276.637 132.213C275.609 131.706 274.693 131.192 273.565 131.192C272.474 131.192 271.384 131.192 270.294 131.192C268.959 131.192 268.708 131.812 268.708 133.049C268.708 133.741 270.147 135.024 270.69 135.339C271.248 135.663 272.02 136.216 272.474 136.664C272.842 137.026 273.58 137.195 273.862 137.543C274.572 138.418 277.227 137.531 277.981 137.25C280.346 136.369 282.932 135.665 285.459 135.48C286.432 135.409 288.054 135.513 288.928 135.057C289.699 134.655 290.203 133.597 290.712 132.951C291.968 131.359 293.33 129.745 294.479 128.11C295.548 126.587 297.364 125.687 298.542 124.267C299.396 123.238 300.054 122.438 300.668 121.227C301.596 119.398 302.038 117.174 302.408 115.17C302.936 112.308 303.739 109.592 303.355 106.616C303.011 103.942 303.201 101.164 303.201 98.4635C303.201 97.4838 303.819 96.8596 304.291 96.0319C304.694 95.3253 304.96 94.5121 305.382 93.8282C305.823 93.1121 305.957 92.2908 306.483 91.6246C307.225 90.6841 308.17 89.9613 309.192 89.3341C310.914 88.2778 312.196 86.4427 313.818 88.4983C314.085 88.8374 314.973 89.2995 315.084 89.6815C315.265 90.3044 315.293 90.8211 315.293 91.4835C315.293 92.8652 315.441 94.1658 314.798 95.4348C314.04 96.9294 312.916 98.1685 311.725 99.3428C310.359 100.69 309.544 102.462 309.544 104.336C309.544 106.507 308.903 108.182 307.364 109.699C306.198 110.848 305.431 112.127 304.677 113.509C302.892 116.777 301.276 120.179 299.732 123.561C298.078 127.183 300.304 131.648 300.833 135.296C300.942 136.048 301.388 136.814 301.615 137.543C301.901 138.458 302.193 139.51 302.606 140.376C303.972 143.237 306.025 145.678 307.859 148.29C308.822 149.66 310.128 151.112 311.329 152.295C312.669 153.617 313.904 155.109 315.381 156.301C316.475 157.183 317.102 158.711 318.069 159.72C320.19 161.935 323.583 163.284 326.439 164.41C330.703 166.091 334.761 168.283 338.883 170.315C341.928 171.816 345.131 172.056 348.355 172.964C349.611 173.318 351.353 173.007 352.672 173.007C354.034 173.007 355.67 173.157 356.967 173.55C358.675 174.068 360.463 174.246 362.176 174.766C363.025 175.023 363.543 175.352 364.456 175.352C365.528 175.352 366.939 175.133 367.925 175.656C370.092 176.807 372.531 178.036 374.268 179.749C374.969 180.44 375.625 180.905 376.449 181.507C378.024 182.659 379.188 183.925 380.557 185.274C381.684 186.385 382.257 187.357 382.792 188.835C383.351 190.377 383.695 191.943 384.235 193.481C384.558 194.4 384.874 194.859 384.874 195.869C384.874 197.547 385.51 199.113 385.678 200.765C385.757 201.542 386.091 202.745 386.361 203.489C386.59 204.122 386.534 204.826 386.812 205.443C387.193 206.288 386.856 208.019 386.856 208.96" stroke="#8C7E6C" stroke-linecap="round"/>
<path d="M387.054 206.616C387.054 212.563 386.856 218.246 386.856 224.201C386.856 230.788 387.649 237.213 387.649 243.839C387.649 245.385 387.847 246.849 387.847 248.387C387.847 250.612 388.107 253.103 387.605 255.269C387.213 256.959 387.253 259.101 387.253 260.838C387.253 262.354 386.658 263.802 386.658 265.343C386.658 270.934 386.063 276.492 386.063 282.082C386.063 284.717 385.865 287.425 385.865 290.093C385.865 292.504 385.998 294.521 385.116 296.694C383.966 299.528 383.885 302.67 384.268 305.693C384.661 308.794 384.874 311.937 385.226 315.061C385.424 316.818 385.657 318.585 385.854 320.337C385.959 321.263 385.95 322.391 386.306 323.267C386.794 324.472 386.912 325.946 387.55 327.078C387.968 327.82 388.252 328.713 388.839 329.325C389.253 329.757 390.022 330.639 390.226 331.192C390.984 333.245 393.695 334.893 395.182 336.359C395.943 337.109 396.651 337.609 397.209 338.508C397.555 339.068 398.543 339.55 399.048 339.974C399.812 340.616 400.687 341.365 401.217 342.221C403.19 345.403 403.566 349.508 406.283 352.186C407.058 352.95 407.919 353.545 408.706 354.292C409.204 354.765 410.837 355.341 411.03 356.007C411.494 357.609 414.053 358.86 415.512 359.514C416.31 359.871 417.125 359.807 417.979 359.807C419.182 359.807 420.565 360.091 421.746 360.349C423.485 360.73 425.304 360.784 427.098 360.784C428.486 360.784 429.873 360.784 431.261 360.784C432.332 360.784 433.947 360.349 434.829 360.784" stroke="#8C7E6C" stroke-linecap="round"/>
<path d="M434.752 360.435C435.749 360.435 435.777 361.051 435.393 361.766C434.917 362.652 433.256 362.994 432.393 363.339C430.646 364.034 428.945 364.688 427.264 365.516C425.998 366.141 424.738 366.798 423.404 367.271C421.892 367.808 420.093 368.351 418.74 369.2C418.197 369.541 417.654 369.767 417.171 370.208C416.774 370.572 416.021 371.055 415.507 371.23C414.456 371.589 413.557 372.487 412.507 372.87C411.764 373.142 411.126 373.662 410.386 373.986C409.623 374.32 408.932 374.744 408.176 375.075C407.42 375.406 406.862 376.044 406.151 376.433C405.573 376.749 404.986 377.509 404.582 378.006C404.193 378.486 404.297 379.404 404.425 379.975C404.577 380.646 405.361 381.755 405.96 382.093C406.209 382.233 406.361 382.532 406.642 382.671C407.055 382.875 407.446 382.979 407.869 383.155C408.31 383.338 408.874 383.244 409.342 383.31C409.778 383.371 410.265 383.521 410.693 383.545C411.425 383.585 412.111 383.666 412.841 383.666C414.624 383.666 416.393 384.238 418.181 384.271C419.376 384.293 420.529 384.583 421.74 384.513C422.225 384.485 422.413 383.043 422.538 382.698C422.852 381.832 422.845 380.969 422.845 380.043C422.845 378.743 423.088 377.326 423.309 376.043C423.447 375.241 423.704 374.318 423.704 373.509C423.704 373.186 423.776 372.702 423.923 372.413C424.372 371.527 425.072 370.935 425.607 370.114C426.714 368.416 428.01 366.839 429.474 365.396C430.342 364.54 431.353 364.348 432.42 363.849C432.872 363.638 434.384 363.01 434.384 363.883C434.384 366.563 432.389 368.907 431.192 371.203C430.746 372.06 430.601 373.031 430.272 373.932C429.942 374.835 429.639 375.903 429.597 376.863C429.566 377.561 429.474 378.238 429.474 378.947C429.474 379.381 429.634 380.188 429.412 380.58C429.223 380.916 429.418 381.37 429.256 381.73C429.129 382.011 429.058 382.454 428.99 382.758C428.818 383.521 429.059 384.393 428.833 385.145C428.649 385.755 428.395 386.675 428.71 387.296C429.113 388.089 429.563 388.022 430.395 388.022C430.878 388.022 431.519 387.393 431.745 386.993C432.255 386.088 432.677 385.309 433.006 384.298C433.138 383.893 433.352 383.454 433.409 383.061C433.509 382.368 433.598 381.521 433.797 380.856C434.072 379.944 434.384 378.856 434.384 377.919C434.384 377.217 434.861 376.695 434.991 375.989C435.136 375.204 435.366 374.419 435.366 373.596C435.366 371.276 435.243 368.98 435.243 366.666C435.243 365.163 435.627 363.59 436.075 362.156C436.316 361.383 436.516 360.328 437.235 359.83C438.195 359.164 439.073 358.343 440.085 357.773C441.025 357.244 443.048 356.643 444.054 357.437C445.769 358.789 445.586 361.26 445.807 363.218C445.929 364.305 446.046 365.309 446.046 366.417C446.046 367.424 446.307 368.817 446.018 369.778C445.361 371.965 445.6 374.29 445.316 376.534C445.266 376.925 445.445 377.495 445.282 377.858C445.026 378.425 444.795 378.993 444.511 379.552C444.083 380.397 443.787 381.275 443.372 382.093C443.081 382.667 442.468 383.587 441.872 383.881C441.444 384.092 440.21 384.24 439.908 383.72C439.365 382.783 439.617 381.457 440.092 380.52C440.83 379.065 441.838 377.489 442.267 375.922C443.087 372.933 444.572 369.983 444.572 366.854C444.572 366.144 444.914 365.302 445.07 364.609C445.31 363.547 445.47 362.399 445.8 361.342C446.115 360.333 446.472 359.53 447.212 358.801C447.705 358.315 448.031 357.506 448.623 357.141C448.819 357.021 449.328 356.572 449.483 356.381C449.674 356.145 449.962 356.044 450.219 355.931C450.758 355.695 451.811 355.528 452.36 355.837C453.029 356.213 453.103 358.021 453.158 358.62C453.293 360.083 453.533 361.453 453.533 362.949C453.533 364.359 453.864 366.236 453.438 367.6C453.068 368.785 453.364 370.27 452.736 371.385C452.286 372.183 452.221 373.381 451.938 374.289C451.604 375.358 451.437 376.611 450.956 377.616C450.434 378.704 449.85 379.722 449.264 380.762C448.983 381.262 448.562 381.716 448.194 382.16C447.909 382.503 447.49 383.081 447.096 383.303C446.691 383.531 446.378 384.033 445.923 384.271C445.462 384.511 445.059 384.886 444.572 385.057C443.625 385.391 442.885 386.158 441.995 386.597C440.74 387.215 439.392 388.316 438.005 388.62C435.585 389.15 432.928 389.264 430.551 389.984C429.794 390.214 428.915 390.156 428.124 390.2C427.309 390.244 426.457 390.32 425.607 390.32C423.985 390.32 422.361 390.216 420.881 389.568C420.286 389.307 419.438 388.818 418.794 388.748C418.01 388.662 417.343 387.843 416.646 387.538C414.57 386.628 412.583 385.224 410.42 384.486C410.004 384.344 409.542 384.179 409.158 383.968C408.599 383.662 408.171 383.687 407.528 383.572C406.551 383.397 405.455 383.628 404.494 383.417C404.205 383.354 403.834 383.269 403.573 383.155C403.317 383.043 403.003 382.771 402.768 382.705C402.019 382.493 401.614 381.94 400.995 381.582C400.712 381.418 400.474 380.732 400.32 380.459C400.043 379.967 399.87 379.379 399.672 378.853C399.335 377.956 398.687 377.216 398.295 376.346C397.855 375.37 397.001 374.647 396.269 373.926C395.713 373.377 394.659 372.943 394.271 372.292C393.474 370.956 391.854 370.387 390.984 369.14C390.54 368.503 389.734 368.292 389.184 367.789C388.851 367.484 388.13 366.832 387.677 366.733C386.368 366.446 385.369 365.834 384.178 365.248C383.446 364.887 382.691 364.717 381.969 364.401C381.187 364.058 380.583 363.575 379.82 363.157C379.176 362.804 378.315 362.507 377.734 362.061C377.002 361.5 375.987 360.724 375.122 360.408C374.309 360.111 373.58 359.344 372.823 358.922C372.102 358.52 371.429 357.923 370.771 357.437C370.594 357.306 370.276 357.296 370.062 357.141C369.818 356.965 369.54 356.805 369.264 356.684C368.904 356.526 368.607 356.266 368.275 356.079C367.567 355.68 366.89 355.252 366.318 354.687C365.449 353.831 364.366 353.197 363.678 352.18C362.437 350.345 360.999 348.719 359.443 347.186C358.67 346.423 358.02 345.516 357.288 344.705C356.675 344.026 356.244 343.044 355.549 342.474C354.96 341.99 354.537 341.427 354.076 340.833C353.282 339.809 352.41 338.986 352.044 337.688C351.698 336.458 351.189 335.258 350.858 333.997C350.401 332.262 350.08 330.49 349.685 328.734C349.392 327.435 349.229 326.201 349.194 324.862C349.157 323.485 348.424 322.127 347.939 320.869C347.373 319.404 346.549 318.111 346.097 316.608C345.788 315.577 345.751 314.463 345.518 313.428C345.325 312.573 345.143 311.518 345.143 310.645C345.143 310.35 344.913 310.123 344.897 309.859C344.871 309.428 344.897 308.986 344.897 308.555C344.897 307.416 344.897 306.278 344.897 305.14C344.897 304.399 344.934 303.7 345.027 302.969C345.073 302.603 345.047 302.053 345.15 301.698C345.511 300.451 345.265 298.741 345.265 297.396" stroke="#8C7E6C" stroke-linecap="round"/>
<path d="M345.202 298.287C345.202 295.599 345.202 292.912 345.202 290.224C345.202 289.53 344.954 288.921 344.954 288.27C344.954 287.767 344.818 286.367 344.582 285.949C344.274 285.402 344.21 283.783 344.21 283.139C344.21 282.447 344.21 281.755 344.21 281.062C344.21 278.325 344.207 275.468 343.412 272.823C342.901 271.125 343.219 269.034 343.219 267.258C343.219 265.97 343.197 264.121 343.838 262.982C344.573 261.68 344.289 259.727 344.83 258.34C345.217 257.349 344.996 256.097 345.326 255.055C345.554 254.336 345.698 253.299 345.698 252.544C345.698 250.988 346.011 249.247 346.207 247.699C346.622 244.425 346.78 239.158 349.471 236.772C351.053 235.368 350.655 238.519 350.655 239.297C350.655 240.758 350.655 242.219 350.655 243.681C350.655 246.262 350.159 248.739 350.159 251.323C350.159 254.336 350.159 257.349 350.159 260.363C350.159 262.014 349.782 263.617 349.429 265.181C349.149 266.424 348.888 268.062 348.369 269.213C347.613 270.888 347.219 272.65 346.551 274.343C346.002 275.737 345.275 277.435 344.458 278.687C343.854 279.612 343.962 280.313 343.962 281.442C343.962 284.855 343.428 287.623 342.035 290.713C341.441 292.029 341.255 293.59 340.616 294.975C339.956 296.407 339.404 297.952 338.757 299.386C338.319 300.359 337.33 301.927 337.27 302.929C337.24 303.435 336.913 304.295 336.65 304.762C336.156 305.638 336.444 306.319 336.223 307.327C335.758 309.446 335.996 311.694 335.521 313.802C335.224 315.12 334.599 316.733 334.048 317.955C333.508 319.151 332.954 320.696 332.808 321.986C332.645 323.433 331.897 324.956 331.817 326.384C331.723 328.039 331.321 329.671 331.321 331.393C331.321 332.081 331.282 332.782 331.321 333.47C331.362 334.193 332.065 334.827 332.065 335.546C332.065 336.667 333.166 337.685 333.304 338.845C333.488 340.387 334.365 341.968 334.915 343.487C335.37 344.743 336.007 346.573 336.829 347.586C337.789 348.768 337.976 350.246 338.564 351.549C339.064 352.658 339.76 353.982 340.01 355.092C340.236 356.093 341.614 358.936 342.599 359.368C343.817 359.901 344.735 361.024 345.945 361.621C347.252 362.265 348.387 363.257 349.663 363.956C350.53 364.43 350.851 365.436 351.702 365.965C352.349 366.366 353.161 366.143 353.877 366.263C354.822 366.421 355.963 366.676 356.838 367.064C359.139 368.085 361.595 368.868 363.985 369.684C365.021 370.037 366.257 371.095 367.386 371.095C368.673 371.095 370.714 371.818 371.848 372.439C372.868 372.998 374.781 373.412 375.938 373.539C376.659 373.617 377.34 374.103 378.045 374.258C379.169 374.504 380.212 374.484 381.391 374.516C382.151 374.537 383.915 374.509 384.613 374.814C385.279 375.106 386.1 374.787 386.72 375.127C387.121 375.346 388.373 375.468 388.827 375.493C389.528 375.531 389.997 375.737 390.686 375.737C391.665 375.737 393.601 375.592 394.336 376.172C394.816 376.551 395.515 376.493 396.016 376.959C396.51 377.419 396.852 378.009 397.379 378.425C398.237 379.101 398.945 380.155 399.431 381.113C399.879 381.996 401.06 382.108 401.978 382.334C403.272 382.653 404.406 383.193 405.628 383.61C408.393 384.554 411.074 384.832 413.738 385.999C415.126 386.607 416.006 387.134 417.085 388.198C417.571 388.677 418.117 389.469 418.696 389.786C419.976 390.487 421.699 390.472 423.034 391.13C425.662 392.425 429.962 394.585 431.213 397.36C431.801 398.663 432.918 400.034 433.692 401.201C435.181 403.446 436.392 405.804 437.906 408.042C439.807 410.853 440.385 414.94 440.385 418.25C440.385 419.279 440.933 422.338 440.33 423.082C439.604 423.976 439.907 425.545 439.393 426.557" stroke="#8C7E6C" stroke-linecap="round"/>
<path d="M439.642 425.579C439.642 427.934 438.525 428.854 436.791 430.221C435.287 431.407 434.491 433.269 433.197 434.619C431.767 436.111 431.049 437.985 429.616 439.397C428.369 440.627 427.082 441.976 425.816 443.225C424.747 444.278 422.934 444.637 422.043 445.736C421.76 446.084 420.105 447.08 419.688 447.08C418.974 447.08 418.271 447.977 417.581 448.057C416.954 448.13 416.171 448.838 415.598 449.089C414.918 449.387 413.954 449.767 413.243 449.767C411.384 449.767 409.525 449.767 407.666 449.767" stroke="#8C7E6C" stroke-linecap="round"/>
<path d="M408.905 450.5C406.407 450.5 404.254 449.453 401.772 449.279C398.634 449.058 395.699 448.546 392.49 448.546C388.761 448.546 384.971 448.301 381.199 448.301C377.863 448.301 374.296 447.952 370.981 448.315C367.724 448.672 364.636 449.034 361.314 449.034C360.055 449.034 358.614 448.69 357.334 448.532C355.571 448.315 353.307 447.962 351.633 447.446C349.883 446.907 347.978 447.1 346.193 446.849C345.029 446.685 343.781 446.347 342.613 446.347C340.408 446.347 338.322 446.102 336.086 446.102C333.618 446.102 331.293 445.614 328.842 445.614C325.972 445.614 322.606 445.707 319.864 444.935C318.907 444.666 317.704 444.636 316.697 444.636C314.447 444.636 312.214 444.26 310.004 443.849C306.728 443.24 303.725 441.296 300.475 440.714C297.697 440.216 295.003 439.587 292.157 439.275C290.799 439.126 289.646 439.051 288.315 438.759C287.256 438.527 286.072 437.841 285.024 437.497C283.739 437.075 282.48 436.36 281.251 435.787C279.782 435.101 278.222 433.724 276.679 433.343C274.232 432.74 271.961 432.206 269.739 430.954C268.899 430.482 268.013 429.941 267.246 429.353C266.046 428.433 264.711 427.751 263.404 426.923C261.721 425.857 259.826 424.32 257.827 423.883C255.853 423.45 253.144 422.025 251.644 420.815C249.935 419.437 247.953 418.259 246.053 417.218C242.732 415.399 238.568 413.852 234.775 413.852C233.271 413.852 231.183 414.216 230.189 415.44C229.871 415.832 228.772 416.397 228.316 416.526C227.12 416.863 225.925 417.651 224.681 418.06C223.653 418.397 222.724 418.864 221.706 419.173C220.608 419.506 219.402 419.52 218.291 419.77C216.172 420.247 213.933 421.549 211.847 421.67C210.729 421.735 209.495 422.554 208.376 422.837C207.179 423.141 206.018 423.572 204.906 424.059C202.546 425.093 200.209 426.252 197.842 427.29C196.793 427.749 195.762 428.492 194.62 428.742C193.916 428.896 192.799 429.25 192.141 429.611C190.296 430.621 187.471 429.824 185.572 430.656C184.861 430.967 183.14 431.155 182.35 431.199C180.967 431.274 179.775 431.563 178.439 431.986C176.109 432.724 173.904 433.422 171.567 434.131C169.104 434.878 166.742 436.085 164.131 436.085C163.344 436.085 161.597 436.26 161.294 435.216C160.949 434.024 161.508 433.485 162.162 432.665C163.868 430.524 167.373 430.043 169.598 428.647C172.169 427.034 174.91 425.459 177.64 424.113C179.914 422.993 181.635 421.111 183.837 419.906C185.486 419.003 186.904 417.892 188.547 417.082C189.312 416.705 190.164 416.387 190.833 415.861C191.141 415.618 192.72 415.611 193.132 415.576C194.252 415.48 195.163 415.075 196.231 414.775C199.623 413.819 202.867 412.041 206.146 410.784C208.138 410.021 210.29 409.894 212.342 409.332C213.921 408.9 215.771 408.232 217.424 408.232C219.529 408.232 221.781 406.88 223.855 406.509C225.553 406.204 227.85 405.495 229.322 404.69C231.291 403.611 233.805 403.37 235.945 402.667C238.073 401.968 240.306 401.969 242.39 401.337C244.943 400.563 247.344 399.96 250.019 399.667C253.84 399.249 257.889 399.428 261.669 398.582C263.718 398.123 265.816 397.931 267.866 397.482C270.074 396.998 272.271 395.857 274.558 395.772C278.231 395.635 281.774 394.306 285.465 394.306C289.266 394.306 293.587 394.054 297.418 393.383C299.199 393.071 301.268 393.177 303.064 393.084C304.055 393.033 305.092 392.389 306.093 392.351C308.512 392.26 310.936 391.618 313.35 391.618C316.341 391.618 319.678 391.414 322.646 391.008C325.59 390.605 329.082 391.16 331.817 389.962C334.123 388.952 336.956 389.402 339.253 388.496C340.225 388.113 341.986 388.442 343.026 388.442C344.737 388.442 347.006 388.829 348.658 388.32C350.464 387.764 352.544 388.576 354.373 388.076C355.663 387.723 357.141 387.768 358.463 387.478C360.506 387.031 363.01 386.672 364.908 385.632C365.674 385.213 367.484 384.777 368.378 384.777C369.631 384.777 370.845 384.044 372.082 384.044C374.353 384.044 376.58 383.556 378.913 383.556C379.904 383.556 380.896 383.556 381.887 383.556C383.531 383.556 385.326 382.431 387.092 382.334C389.248 382.216 391.24 381.357 393.427 381.357C395.405 381.357 397.384 381.357 399.362 381.357C400.366 381.357 400.924 381.688 401.841 382.09C402.423 382.345 403.687 382.554 403.948 383.067" stroke="#8C7E6C" stroke-linecap="round"/>
<path d="M400.725 382.334C399.498 381.125 398.239 379.739 396.883 378.669C394.97 377.161 392.843 376.418 390.563 375.615C386.667 374.244 382.495 374.373 378.472 373.24C376.063 372.562 373.637 372.6 371.228 372.073C369.174 371.623 367.218 371.095 365.156 371.095C363.544 371.095 361.933 371.095 360.322 371.095C358.252 371.095 357.119 370.889 355.365 369.928C353.991 369.176 352.656 368.408 351.027 368.408C350.327 368.408 349.167 368.191 348.548 368.53C347.733 368.976 347.051 369.691 346.317 370.254C344.744 371.46 342.839 372.861 341.484 374.272C341.107 374.663 340.566 375.265 340.3 375.737C339.973 376.317 339.775 376.052 339.253 376.28C338.376 376.665 337.385 376.726 336.526 377.149C333.035 378.87 329.438 381.073 326.997 384.167C326.219 385.153 325.042 386.067 324.078 386.922C322.873 387.991 321.359 389.253 319.919 389.963C318.139 390.84 316.105 391.264 314.342 392.229C311.969 393.528 309.325 393.243 306.782 393.94C305.744 394.224 304.205 394.306 303.119 394.306C302.353 394.306 301.519 394.755 300.833 394.795C298.949 394.904 297.211 395.953 295.435 396.559C293.296 397.289 291.37 398.576 289.183 399.192C286.644 399.907 284.264 401.391 281.623 401.391C279.292 401.391 276.716 400.651 274.503 399.98C272.786 399.459 270.351 399.437 268.554 399.437C266.596 399.437 264.726 399.192 262.784 399.192C261.002 399.192 258.359 400.256 257.083 401.514C256.412 402.175 255.168 402.958 254.288 403.292C253.589 403.557 253.162 404.297 252.443 404.323C251.241 404.367 249.348 405.505 248.284 406.088C247.445 406.547 246.65 407.091 245.805 407.554C242.444 409.394 239.825 412.535 236.262 414.096C234.752 414.758 233.096 415.052 231.676 415.752C230.405 416.379 228.407 417.028 226.967 417.028" stroke="#8C7E6C" stroke-linecap="round"/>
<path d="M253.505 130.928C253.505 133.495 250.766 137.993 248.972 139.865C246.208 142.75 242.006 146.907 237.89 147.809C233.745 148.717 230.58 149.795 226.194 149.795C220.399 149.795 217.315 148.125 213.713 143.589C210.253 139.231 208.952 135.007 211.811 129.936C215.118 124.067 225.547 125.467 231.091 125.467C232.433 125.467 238.552 124.279 239.401 123.233C240.496 121.884 245.768 120.006 247.461 120.006" stroke="#8C7E6C" stroke-linecap="round"/>
<path d="M209.684 243.629C209.684 239.668 210.167 235.747 211.447 231.962C212.628 228.468 213.058 224.742 214.469 221.343C215.902 217.89 216.961 214.984 219.002 211.854C223.908 204.332 227.995 195.981 235.092 190.258C238.341 187.638 242.158 186.713 246.062 185.431C246.736 185.209 249.224 184.52 249.867 185.155C250.367 185.647 250.117 188.927 249.867 189.513C247.756 194.455 245.45 199.551 240.409 202.311C238.355 203.436 237.134 205.538 235.12 206.641C233.071 207.763 230.778 208.406 228.572 209.372C226.888 210.11 224.125 212.171 223.004 213.592C221.917 214.97 220.062 217.412 218.471 218.309C214.431 220.584 210.685 225.375 209.292 229.838C208.669 231.835 208.288 234.744 208.173 236.678C208.06 238.565 207.696 242.153 209.684 243.132" stroke="#8C7E6C" stroke-linecap="round"/>
<path d="M351.22 236.182C347.4 232.416 343.141 229.212 339.244 225.645C335.931 222.613 333.025 219.339 329.31 216.791C325.507 214.184 322.489 208.81 320.244 204.876C318.636 202.058 314.891 198.032 311.933 196.574C310.258 195.748 301.692 191.617 300.88 195.222C299.57 201.031 305.386 204.932 309.918 207.165C313.6 208.98 317.706 210.093 321.503 211.965C325.646 214.006 332.234 216.988 334.599 221.067C336.265 223.941 338.159 227.415 340.643 229.727C342.919 231.846 346.184 234.314 346.184 237.671" stroke="#8C7E6C" stroke-linecap="round"/>
<path d="M217.239 220.791C226.977 220.791 236.715 220.791 246.453 220.791C253.784 220.791 261.144 221.989 268.392 223.053C276.622 224.261 286.448 224.753 294.695 223.163C300.087 222.123 305.915 222.487 311.401 221.811C315.241 221.338 319.08 221.114 322.119 218.419C323.73 216.989 329.942 214.589 331.073 216.819" stroke="#8C7E6C" stroke-linecap="round"/>
</g>
<defs>
<filter id="filter0_g_109_479" x="43.4302" y="23.9308" width="453.14" height="447.822" filterUnits="userSpaceOnUse" color-interpolation-filters="sRGB">
<feFlood flood-opacity="0" result="BackgroundImageFix"/>
<feBlend mode="normal" in="SourceGraphic" in2="BackgroundImageFix" result="shape"/>
<feTurbulence type="fractalNoise" baseFrequency="1 1" numOctaves="3" seed="9334" />
<feDisplacementMap in="shape" scale="2" xChannelSelector="R" yChannelSelector="G" result="displacedImage" width="100%" height="100%" />
<feMerge result="effect1_texture_109_479">
<feMergeNode in="displacedImage"/>
</feMerge>
</filter>
<filter id="filter1_g_109_479" x="0" y="0" width="540" height="535.568" filterUnits="userSpaceOnUse" color-interpolation-filters="sRGB">
<feFlood flood-opacity="0" result="BackgroundImageFix"/>
<feBlend mode="normal" in="SourceGraphic" in2="BackgroundImageFix" result="shape"/>
<feTurbulence type="fractalNoise" baseFrequency="1 1" numOctaves="3" seed="9334" />
<feDisplacementMap in="shape" scale="2" xChannelSelector="R" yChannelSelector="G" result="displacedImage" width="100%" height="100%" />
<feMerge result="effect1_texture_109_479">
<feMergeNode in="displacedImage"/>
</feMerge>
</filter>
</defs>
</svg>
